<?xml version="1.0" encoding="UTF-8" standalone="no"?>
<svg
   version="1.1"
   width="1200"
   height="450"
   id="svg3058"
   sodipodi:docname="Alumnitrimmed.svg"
   inkscape:version="1.2.2 (b0a8486541, 2022-12-01)"
   inkscape:export-filename="Alumnitrimmed.png"
   inkscape:export-xdpi="150"
   inkscape:export-ydpi="150"
   xmlns:inkscape="http://www.inkscape.org/namespaces/inkscape"
   xmlns:sodipodi="http://sodipodi.sourceforge.net/DTD/sodipodi-0.dtd"
   xmlns="http://www.w3.org/2000/svg"
   xmlns:svg="http://www.w3.org/2000/svg"
   xmlns:rdf="http://www.w3.org/1999/02/22-rdf-syntax-ns#"
   xmlns:cc="http://creativecommons.org/ns#"
   xmlns:dc="http://purl.org/dc/elements/1.1/">
  <defs
     id="defs3062" />
  <sodipodi:namedview
     id="namedview3060"
     pagecolor="#ffffff"
     bordercolor="#666666"
     borderopacity="1.0"
     inkscape:showpageshadow="2"
     inkscape:pageopacity="0.0"
     inkscape:pagecheckerboard="0"
     inkscape:deskcolor="#d1d1d1"
     showgrid="false"
     inkscape:zoom="1.9114016"
     inkscape:cx="987.23366"
     inkscape:cy="230.19757"
     inkscape:window-width="1938"
     inkscape:window-height="1257"
     inkscape:window-x="407"
     inkscape:window-y="25"
     inkscape:window-maximized="0"
     inkscape:current-layer="svg3058" />
  <title
     id="title2">World Map</title>
  <style
     id="style_css_sheet"
     type="text/css">

/*
 * Below are Cascading Style Sheet (CSS) definitions in use in this file,
 * which allow easily changing how countries are displayed.
 *
 * The styles are applied in the order in which they are defined (and re-defined) here in the preamble.
 */

/*
 * Circles around small countries and territories
 *
 * Change opacity to 1 to display all circles
 */
.circlexx
{
	opacity: 0;
	fill: #c0c0c0;
	stroke: #000000;
	stroke-width: 0.5;
}

/*
 * Smaller circles around subnational territories: Australian external territories, Chinese SARs, Dutch special municipalities, and French DOMs (overseas regions/departments) [but not French COMs (overseas collectivities)]
 *
 * Change opacity to 1 to display all circles
 */
.subxx
{
	opacity: 0;
	fill: #c0c0c0;
	stroke: #000000;
	stroke-width: 0.3;
}


/*
 * Land
 * (all land, as opposed to water, should belong to this class; in order to modify the coastline for land pieces with no borders on them a special class &quot;coastxx&quot; has been added below)
 */
.landxx
{
	fill: #c0c0c0;
	stroke: #ffffff;
	stroke-width: 0.5;
	fill-rule: evenodd;
}

/*
 * Styles for coastlines of islands and continents with no borders on them
 * (all of them should also belong to the class &quot;landxx&quot; - to allow for all land to be modified at once by refining &quot;landxx&quot; style's definition further down)
 */
.coastxx
{
	stroke-width: 0.2;
}


/*
 * Styles for territories without permanent population (the largest of which is Antarctica)
 *
 * Change opacity to 0 to hide all territories
 */
.antxx
{
	opacity: 1;
	fill: #c0c0c0;
}

/*
 * Circles around small countries without permanent population
 *
 * Change opacity to 1 to display all circles
 */
.noxx
{
	opacity: 0;
	fill: #c0c0c0;
	stroke: #000000;
	stroke-width: 0.5;
}


/*
 * Styles for territories with limited or no recognition
 * (all of them - including Taiwan - are overlays (i.e. duplicate layers) over their &quot;host&quot; countries, and so not showing them doesn't leave any gaps on the map)
 *
 * Change opacity to 1 to display all territories
 */
.limitxx
{
	opacity: 0;
	fill: #c0c0c0;
	stroke: #ffffff;
	stroke-width: 0.2;
	fill-rule: evenodd;
}

/*
 * Smaller circles around small territories with limited or no recognition
 *
 * Change opacity to 1 to display all circles
 */
.unxx
{
	opacity: 0;
	fill: #c0c0c0;
	stroke: #000000;
	stroke-width: 0.3;
}


/*
 * Oceans, seas, and large lakes
 */
.oceanxx
{
	opacity: 1;
	fill: #ffffff;
	stroke: #000000;
	stroke-width: 0.5;
}

/*
 * Reserved class names:
 *
 * .eu - for members of European Union
 * .eaeu - for members of Eurasian Economic Union
 */


/*
 * Additional style rules
 *
 * The following are examples of colouring countries.
 * These can be substituted with custom styles to colour the countries on the map.
 *
 * Colour a few countries:
 *
 * .gb, .au, .nc
 * {
 * 	fill: #ff0000;
 * }
 *
 * Colour a few small-country circles (along with the countries):
 *
 * .ms, .ky
 * {
 * 	opacity: 1;
 * 	fill: #ff0000;
 * }
 *
 */


	</style>
  <rect
     style="fill:#ffffff;stroke:none;stroke-width:0.996649;stroke-dasharray:1.9933, 3.9866"
     id="rect19169"
     width="1218.4911"
     height="471.26184"
     x="-3.5444298"
     y="-7.5805492" />
  <g
     id="tr"
     class="landxx tr"
     transform="matrix(1.9402595,0,0,1.9402595,-2003.0262,-384.82808)">
    <title
       id="title417">Turkey</title>
    <path
       id="Turkey_Eastern_Thrace"
       d="m 1489.24,346.052 c 0.75,-0.356 1.78,-1.377 2,-2.188 0.35,-1.264 -0.62,-2.213 1.14,-3.004 0.95,-0.433 0.6,-0.439 0.36,-1.446 -0.14,-0.591 -0.37,-1.182 -1.01,-1.39 -2.3,-0.751 0.54,-1.113 0.41,-2.033 0,-0.256 2.45,-0.967 2.86,-1.099 1.32,-0.431 2.1,-0.875 3.06,0.215 0.9,1.017 1.4,0.365 2.54,0.252 0.53,-0.05 1.15,0 1.58,0.359 0.73,0.606 -0.36,0.816 0.15,1.481 1.93,2.481 4.18,3.559 7.24,4.477 1.18,0.354 0.2,2.077 -0.53,2.348 -1.4,0.518 -3.43,-0.838 -4.86,-0.921 -0.7,-0.04 -1.13,0.45 -1.71,0.748 -0.72,0.366 -1.47,-0.269 -2.29,-0.02 -0.99,0.298 -1.4,1.368 -2.08,2.113 -1.12,1.21 -2.61,1.552 -3.89,2.486 -1.09,0.792 -2.14,3.002 -3.31,3.457 -0.36,-1.402 0.24,-2.86 1.62,-3.351 0.24,-0.09 2.89,-0.889 2.02,-1.607 -1.42,-1.167 -4.61,1.96 -5.3,-0.874" />
    <path
       id="Turkey_Anatolia"
       d="m 1490.18,356.924 c 0.1,-0.745 0.19,-4.432 0.74,-4.643 1.37,-0.521 1.81,-2.501 3.22,-3.206 0.75,-0.375 1.72,0.287 2.42,-0.202 0.87,-0.612 1.25,-0.146 2.02,0.314 1.1,0.661 4.66,0.38 2.4,-0.976 0.72,-0.292 1.49,-0.254 2.23,-0.07 -0.37,0.132 -0.54,0.366 -0.54,0.701 0.43,0.59 2.57,0.242 3.11,0.192 1.68,-0.153 4.1,0.825 5.5,-0.389 -0.67,-0.655 -1.54,-0.08 -2.24,-0.647 0.9,-2.304 5.05,-1.436 6.92,-1.872 -1.62,-0.795 -3.92,-0.127 -5.28,-1.517 -1.52,-1.56 0,-2.854 1.64,-2.7 1.79,0.169 3.58,1.002 5.4,0.605 2.43,-0.529 4.4,0.796 6.88,0.551 1.14,-0.113 1.31,-0.7 1.74,-1.594 0.46,-0.985 2.21,-1.416 3.1,-1.937 2.57,-1.504 4.61,-2.826 7.51,-3.611 3.03,-0.819 5.35,-0.382 8.42,-0.382 1.24,0 2.55,0.51 3.78,0.144 0.57,-0.17 0.75,-0.847 1.3,-1.008 0.56,-0.163 1.04,0.167 1.58,0.216 -0.92,1.107 0.65,2.612 1.66,2.917 0.76,0.231 1.54,0.422 2.34,0.317 0.88,-0.114 1.62,-1.099 1.62,0.15 0.2,-1.856 1.39,0.402 1.57,0.933 0.23,0.702 2.14,3.077 2.9,2.27 0.99,-1.066 2.05,-0.831 3.12,0.02 1.3,1.041 2.9,1.229 4.35,1.956 0.82,0.412 0.96,-1.279 2.08,-0.05 0.91,0.992 2.66,0.968 3.9,1.092 1.72,0.173 3.48,-1.017 5.21,-1.187 1.48,-0.146 2.29,-0.34 3.7,0.166 1.98,0.709 3.45,1.193 5.48,0.239 2.45,-1.145 4.68,-2.45 6.77,-4.131 0.84,-0.673 1.61,0.466 2.46,0.484 0.52,0.01 0.47,-0.697 1.08,-0.576 0.39,0.08 0.78,0.167 1.17,0.247 0.57,0.117 2.19,0.755 2.54,-0.01 0.42,-0.938 2.46,-1.72 1.83,-0.308 0.64,-0.121 1.2,0.292 1.66,0.676 0.33,0.3 0.68,0.583 1.04,0.847 0.57,0.07 0.71,0.34 0.39,0.806 0.27,0.806 1.36,0.02 1.8,0.68 0.29,0.429 0.48,1.701 0.91,2.047 1.36,1.101 2.47,2.201 1.69,3.326 -0.77,1.111 1.31,2.761 0.22,3.498 1.75,0.885 2.65,0.683 4.48,0.751 1.57,0.06 3.78,2.142 4.37,3.497 -0.86,-0.704 -2.16,-1.725 -2.52,0 -0.11,0.532 0,1.091 -0.13,1.621 -0.22,0.686 -2.03,0.323 -2.6,0.539 0.42,0.498 1.26,1.782 1.42,2.407 0.27,1.043 0.73,1.586 1.1,2.552 0.55,1.421 0,3.498 1.87,4.113 -0.62,0.581 -0.98,1.746 -1.17,2.542 -0.39,1.598 1.27,1.364 2.11,2.138 0.84,0.777 0.67,1.802 0.94,2.818 0.14,0.508 1.03,0.733 1.39,1.046 0.39,0.346 0,1.167 0.26,1.607 -1.68,-1.183 -2.37,1.757 -3.34,1.439 -1.24,-0.412 -0.22,-2.052 -1.13,-2.663 -0.46,-0.305 -1.22,-0.277 -1.63,0.1 -0.75,0.672 -1.84,0.515 -2.72,0.239 -1.43,-0.45 -2.54,-0.923 -4.05,-0.901 -1.08,0.02 -1.75,-0.283 -2.31,0.662 -0.68,1.144 -2.04,2.172 -2.51,0.466 -0.41,-1.487 -2.28,0.302 -3.1,0.568 -2.12,0.684 -3.89,0.664 -6.03,0.381 -3.85,-0.508 -7.17,3.366 -11.07,3.637 -1.55,0.108 -4.36,0.492 -5.67,-0.496 -1.42,-1.078 -2.31,-1.697 -4.07,-0.843 -1.88,0.912 -5.97,3.063 -7.59,1.059 -0.81,-1.005 -2.53,-1.354 -2.78,0.228 -0.24,1.556 0.3,2.645 0.97,3.977 -0.71,0.04 -1.46,0.241 -2.16,0.07 -0.12,0.616 0.29,1.267 0.1,1.872 -0.26,0.718 -1.21,0.869 -1.44,1.656 -0.54,-0.363 -1.09,-0.773 -1.73,-0.936 0.62,-0.807 -0.24,-1.856 -0.72,-2.46 -0.91,-1.126 0.1,-1.789 1.01,-2.604 0.96,-0.837 1.59,-1.427 0.65,-2.694 -0.38,-0.506 -1.16,-1.131 -1.7,-0.438 -0.74,0.958 -1.49,0.807 -2.41,1.5 1.53,-0.156 0,1.387 -1.18,1.179 -1.41,-0.258 -2.67,-1.088 -3.93,-1.721 -3.01,-1.507 -4.57,2.915 -5.98,4.718 -0.22,-0.241 -0.43,-0.481 -0.65,-0.72 -0.54,0.569 -0.9,1.581 -1.78,1.248 -0.77,-0.289 -2.93,0.242 -3.65,0.602 -1.3,0.654 -2.84,0.556 -4.11,0 -1.96,-0.865 -2.66,-3.036 -4.53,-3.948 -2.05,-1.002 -4.11,-2.147 -6.37,-2.548 -1.19,-0.21 -3.61,-0.69 -3.61,1.197 0,1.083 0.2,3.052 -0.59,3.917 -0.43,0.471 -1.01,-0.402 -1.42,-0.458 -1.04,-0.143 -2.12,1.093 -3.15,1.266 -1.19,0.2 -3,-0.568 -3.98,-1.197 -0.75,-0.478 -0.78,-2.041 -1.8,-2.089 0.79,-1.12 -1.06,-2.336 -1.29,-0.863 -0.77,-0.674 -2.72,-0.927 -2.96,-2.089 -0.18,0.84 -2.21,2.224 -2.88,2.736 0.24,-0.503 0.1,-0.814 -0.5,-0.936 0.57,-0.122 0.93,-0.574 0.93,-1.152 -0.73,0.613 -4.17,1.347 -5.11,1.08 0.75,-0.916 2.15,-0.971 3.22,-0.943 1.1,0.03 0.98,0.317 1.43,-0.527 0.31,-0.587 0.98,-0.853 1.4,-1.338 -1.33,-0.593 -5.89,-0.67 -6.98,0.432 -1.65,-1.933 1.48,-0.912 1.72,-1.411 0.19,-0.415 0.17,-0.995 -0.1,-1.389 -0.55,-0.923 -1.16,0.358 -0.86,-1.088 -1.59,2.029 -1.47,-2.153 -2.95,-2.088 1.03,-0.557 2.2,-1.094 1.32,-2.486 -0.64,-1.004 -2.44,-0.484 -2.88,-1.23 -0.45,-0.772 -0.91,-1.853 -1.59,-0.502 -0.3,0.599 -2.43,-1.012 -2.47,-1.542 2.15,0.514 0.29,-1.759 0.37,-2.645 0.1,-0.733 1.22,-0.198 1.44,0.162 0.45,0.746 0.3,1.969 1,2.555 -0.15,-1.596 2.33,0.401 3.02,-1.224 -1.43,-0.177 -2.01,-0.872 -2.88,-1.944 0.75,-0.414 1.14,-1.321 2.02,-1.512 -0.39,-1.168 -1.6,0.04 -1.49,-1.278 0.11,-1.314 -0.58,-1.483 -1.54,-2.322 0.64,-0.733 1.37,-1.377 1.95,-2.16 -2.05,-1.045 -3.99,1.11 -6.05,0.435" />
    <path
       id="Turkey_Gokceada"
       d="m 1487.45,351.596 c -0.58,-0.949 1.27,-1.967 1.63,-0.979 0.21,0.574 -1.28,0.955 -1.63,0.979" />
  </g>
  <path
     id="pl"
     class="landxx eu pl"
     d="m 1030.1248,152.04749 c 0,-3.161 4.6209,-3.9876 2.8903,-7.67145 -0.6075,-1.27581 -2.0067,-3.17756 -1.4728,-4.72032 0.2394,-0.71431 2.7063,0.19882 3.2218,0.19698 -0.2578,-1.042 0,-1.96987 0.6627,-2.78359 -0.1841,0.21908 -0.2761,0.44 -0.405,0.66276 -0.81,-0.69037 -1.7305,-1.08803 -2.7799,-1.19297 0.5523,1.40653 -1.6201,0.60937 -1.7305,-0.66276 3.056,1.14695 7.9347,-1.49673 10.7146,-2.61054 3.3138,-1.3384 11.4142,-0.97389 13.4945,-3.74459 2.559,-3.38376 8.5607,-4.94309 12.5925,-6.00535 5.0259,-1.3292 11.9481,-2.39698 16.2192,1.22611 -1.1598,-0.79347 -2.5222,-1.60535 -3.9766,-1.06042 1.749,1.64402 2.1908,4.80317 4.7314,5.53957 3.0745,0.88553 7.1799,-0.44368 10.1255,-1.2979 -1.2887,0.78058 -2.872,0.98493 -4.1423,1.841 -1.8225,1.23347 2.0436,0.52653 2.7431,0.16569 4.7314,-2.42092 8.8921,-0.47498 14.5255,-0.55414 7.4377,-0.11046 17.913,1.73238 25.2954,0.64435 5.523,-0.81004 6.8301,1.77288 8.2108,6.82275 1.4176,5.19162 7.8059,11.2927 5.9649,16.9998 -0.9205,2.88853 -4.5657,1.85205 -6.0937,4.06677 -1.5465,2.21656 -2.872,3.89556 0.8652,4.58777 5.9833,1.10829 0.9942,6.96819 2.78,10.19915 1.8594,3.40033 2.5221,7.4763 7.6401,9.96349 -0.7364,0.37557 -1.4912,0.72904 -2.246,1.06042 2.2644,2.00301 2.8535,4.27664 -0.3682,5.4733 -3.2586,1.20217 -6.1674,4.35028 -8.395,6.89823 -1.9146,2.19999 -6.02,5.06459 -4.7498,8.46492 0.5339,1.42309 0.3682,2.93455 0.9021,4.3466 0.4235,1.12117 1.6938,0.7364 1.4728,2.25523 -2.2092,-1.55565 -5.523,-1.52804 -8.0267,-2.41724 -2.467,-0.87632 -3.6636,-2.7615 -6.2042,-3.43899 -2.4854,-0.66828 -5.2653,-1.05857 -7.7138,-0.0368 -3.1481,1.31632 -3.5163,0.11046 -6.5724,-0.25774 -2.3564,-0.28904 -3.2217,0.16569 -4.9338,1.62929 -0.7549,0.62962 -1.7122,1.43414 -2.7431,1.52066 -1.749,0.14728 -1.1783,-1.71397 -1.8595,-2.56267 -0.7364,-0.91314 -2.4301,-1.66979 -3.369,-2.79648 -1.5096,-1.81523 -5.1916,2.1687 -6.8301,2.39882 0.4234,-1.42493 -5.6703,-7.82241 -7.7138,-8.38207 -2.2828,-0.62594 -3.4058,-1.57038 -5.6335,-0.86159 -2.338,0.73824 -2.5589,-3.16284 -2.3012,-4.54359 -3.7188,1.11749 -6.9038,-1.48937 -10.328,-2.38594 0,1.12854 0.5891,2.0564 1.4544,2.7836 -1.436,0.961 -4.0502,3.58811 -5.6703,1.34209 -1.3071,-1.83548 -2.0987,-3.06159 -4.4,-3.86058 0.6075,-0.52653 2.8904,-1.74527 2.3933,-2.82962 -0.6443,-1.41941 -3.8477,-0.81556 -4.6577,0.0368 -0.1841,-3.63045 -6.7933,-1.02728 -8.1925,-3.12602 -1.3255,-1.99749 0,-1.66426 -3.0008,-2.87933 -2.3013,-0.93706 -0.4234,2.60318 -3.3875,2.02879 2.062,-5.14376 3.4243,-6.7933 -0.5154,-9.47379 -1.7122,-1.15431 -0.3682,-2.45222 -1.6938,-3.63782 -1.7489,-1.5446 0.1841,-2.26627 0.4787,-3.91397 0.1841,-1.01255 -0.2209,-2.83882 -0.3498,-3.86794 -0.1841,-1.03648 -2.2644,-0.7769 -1.8594,-2.50744 0.2762,-1.13406 1.6937,-2.25891 0.1841,-3.18309 -1.8594,-1.11197 -3.6268,-2.40987 -5.21,-3.89924">
    <title
       id="title971">Poland</title>
  </path>
  <g
     id="us"
     class="landxx coastxx us"
     transform="translate(360.54301,286.50997)">
    <title
       id="title2125">United States of America</title>
    <path
       id="United_States_lower_48"
       class="landxx us"
       d="m 94.719401,-97.810816 c 0.84856,-2.585334 -2.745262,-4.804544 -2.093643,-7.708414 0.738855,-3.29114 3.554171,-6.25714 3.706171,-9.60908 0.05287,-1.30059 -2.145191,-4.17142 -1.679937,-5.10325 1.307205,-2.61309 2.782272,-4.95258 5.587018,-6.12893 -1.287384,0.63972 -1.39048,0.51548 -0.310615,-0.37538 0.737535,-0.74149 1.617815,-1.5927 1.833255,-2.66992 0.3582,-1.78568 2.54304,-2.97657 3.32683,-4.62743 0.60669,-1.28077 0,-3.13517 0.81023,-4.10269 1.33232,-1.60988 0.51813,-2.07117 0.83006,-3.88989 0.22073,-1.28738 1.21204,-2.29719 1.95222,-3.31229 0.91332,-1.2517 0.67805,-2.39633 1.24508,-3.68899 0.64104,-1.45921 1.82929,-2.72808 2.93163,-3.85156 0.456,-0.46526 2.99507,-3.12857 2.3223,-1.5557 0.31986,-0.74546 0.81552,-0.69523 1.46714,-0.87367 0.43617,-0.11896 1.41955,-1.91785 -0.42032,-0.36348 0.99924,-1.31117 2.21128,-3.44843 4.09212,-3.52113 -2.08439,0.51548 -0.10574,-1.22525 0.4071,-1.92974 0.75339,-1.03361 1.57287,-2.01434 2.3831,-3.00301 1.22261,-1.49357 1.99848,-3.35062 3.45901,-4.64989 2.12933,-1.89406 4.1582,-5.10458 5.71257,-7.56038 0.571,-0.90011 1.69977,-3.17351 3.07438,-2.93691 -0.4983,-1.483 1.2279,-3.45108 2.11611,-4.4371 1.14199,-1.26755 1.51472,-3.27925 3.42464,-3.3797 1.43277,-0.0793 4.26791,1.17503 5.40197,0.20355 -0.75604,0.32911 -1.7566,-0.54192 -2.36724,-0.85385 -1.17371,-0.60007 -1.80418,-0.25113 -2.99508,-0.0661 -1.79625,0.28153 0.31061,-3.03341 0.60404,-3.5555 -0.25774,0.67806 -0.54324,1.34554 -0.85649,1.9998 1.61649,-0.34629 2.27604,-4.02074 4.18729,-3.14046 -0.60801,-0.51945 -1.30589,-0.70978 -2.09365,-0.57232 0.30929,-2.18616 2.17295,-2.1584 3.90179,-2.66463 -0.7904,0.0529 -1.51075,-0.35423 -1.99847,-0.95166 -0.28286,0.29475 -0.53663,0.61065 -0.76133,0.95166 0.97016,-3.10346 3.27396,-6.26507 3.05455,-9.59322 -0.10574,-1.58609 1.80683,-6.59815 3.40614,-6.18048 2.55096,0.66616 4.3644,2.11083 7.06075,2.57344 1.62443,0.27889 5.78263,-0.13218 5.79717,1.49357 0.18769,-0.74282 0.77719,-1.27813 1.52265,-1.42748 -0.43221,0.73489 -0.11895,1.67861 -0.35687,2.4624 -0.27756,0.94373 -2.48355,2.01434 -3.26074,2.58137 2.13594,-2.19409 -0.84856,-0.13217 -1.26755,0.15729 -1.32968,0.90143 -2.52321,1.98129 -3.7749,2.98318 0.93579,0.82212 2.00112,0.0793 2.85496,-0.38067 -0.6503,0.1758 -1.28473,0.39785 -1.90199,0.66616 0,-1.43938 1.71827,-2.28529 2.8444,-2.72543 1.93371,-0.75208 3.21844,-2.01566 4.95786,-3.07967 0.55249,1.49093 -3.1854,2.49678 -3.71146,4.09212 1.8663,-1.01906 0,2.58269 -1.61781,2.7598 0.28549,-0.31722 0.57099,-0.63311 0.85516,-0.95165 -1.23847,0.15068 -1.91256,1.35611 -2.66463,2.18881 -0.0661,-0.80098 0.38991,-1.49225 1.04682,-1.90332 -1.42748,0.48508 -2.37517,1.94826 -3.90179,2.18881 1.28738,-0.30268 1.28738,-0.0793 0,0.66616 0.99263,-0.81023 1.24641,-0.65162 0.76133,0.47583 0.36876,-1.04418 1.26755,-1.56627 2.29851,-1.00453 0.65162,0.35555 1.98922,-0.95033 2.45051,-1.25962 1.70373,-1.14463 4.08287,-1.83458 4.34061,-4.39744 0.18769,-1.87159 4.10402,-2.9845 3.68106,-4.40537 -0.35555,-1.19354 0.96884,-2.16899 0.55381,-3.4947 -0.31193,-0.99659 -1.57684,0.26832 -0.85649,-1.42616 2.22846,1.14595 2.57211,-1.6112 3.71146,-2.76112 -1.45128,0.2128 -0.51681,-1.92578 0.10574,-2.61045 l 244.72357,-0.15464 0.46394,-4.39083 c 0.0793,-0.78909 2.19013,-0.50227 2.50602,1.1975 0.41503,2.23374 -2.92898,5.89894 -0.11895,6.30075 0.89482,0.13217 5.01998,0.34498 4.88913,1.60856 -0.13879,1.34818 4.21636,-0.48508 5.00412,-0.79965 1.73016,-0.68863 3.76301,0.84459 5.39668,1.21072 -0.48508,0.77189 -0.0925,1.29795 0.74414,1.35082 -0.36876,0.40313 -0.2313,2.05002 0.47319,1.76453 0.36348,-0.14672 0.52473,-0.99528 0.9728,-1.00189 1.08912,-0.0132 1.55966,0.66352 2.36857,1.2517 0.65426,0.47582 1.03757,0.49301 1.29531,0.57892 -0.0793,0.53134 -0.0264,1.16974 0.75736,1.17503 2.63688,0.0132 4.93539,-1.7447 7.45728,-1.77114 -1.01114,1.83987 2.26018,1.4645 3.15632,1.39444 0.84592,-0.0661 1.79758,-0.10574 2.60516,0.32383 1.9509,1.02435 2.54304,0.7904 4.00885,0.6199 -5.50639,1.71298 -11.26787,3.62158 -16.37641,6.34966 -2.12404,1.13405 -4.04189,2.61044 -6.14611,3.77886 -2.34874,1.30589 -5.03585,2.07911 -7.13742,3.80663 1.85705,2.82853 10.3519,-1.81344 12.75219,-1.99848 -0.28285,1.31381 -1.71827,2.86819 -2.85497,3.52113 0.63576,0.18636 1.7989,-0.64766 2.20467,-0.31061 0.71639,0.5961 0.53002,0.75207 1.66672,0.75207 1.97469,0 3.95466,-1.24376 5.70729,-2.00773 2.07514,-0.90539 4.2851,-0.34497 6.2611,-1.30456 2.60648,-1.26623 5.18653,-2.24564 7.66612,-3.79076 -0.4071,0.95033 0.30136,1.59931 0.47583,2.4743 0.18372,0.91994 -0.85253,1.64822 -1.04682,2.47431 0.4745,-0.39917 4.50847,-3.02019 2.09364,-0.76133 2.49942,-1.9271 4.45692,-0.24716 5.72844,2.06985 1.19353,2.17692 2.53378,1.32703 4.54548,2.0725 2.78623,1.03228 5.42311,-1.54512 8.01373,-2.1941 1.55041,-0.38727 3.11667,-0.0529 4.68955,-0.16918 1.97601,-0.14936 3.90047,-0.64898 5.85929,-0.92258 -0.61725,1.02832 -1.26623,2.04342 -1.52265,3.23563 1.86366,0.43353 3.56343,0.24849 5.30813,0 1.57287,-0.21676 1.10498,2.85497 -0.16919,3.13386 1.22923,0.0793 1.37065,1.47374 2.09365,2.18616 -1.81476,1.7143 -4.82437,-0.9847 -6.91537,0.22866 -0.0793,0.0397 -1.368,1.47507 -1.32174,1.47243 -1.23716,0.0793 -1.26227,-1.69448 -2.37386,-2.12801 -3.27924,-1.28077 -5.2764,1.10762 -8.48427,0.94108 -3.39821,-0.17711 -4.83098,2.96203 -7.8353,3.76962 0.50491,-1.15257 1.65747,-1.77246 2.4743,-2.66464 -2.03548,0.33176 -2.90255,1.59667 -4.75827,2.09364 0.13217,-0.73489 0.41106,-1.40237 0.85649,-1.9998 -3.29908,1.22262 -6.09457,5.35571 -8.81207,7.52601 -0.6926,0.55249 -0.95562,1.44996 -1.65615,1.99055 -0.77851,0.60139 -1.87291,0.54852 -2.6805,1.15785 -1.23054,0.92786 -2.95542,2.46109 -3.21976,4.07626 2.35006,-0.4679 4.67236,-4.43313 7.28281,-3.3916 0.94901,0.37934 -2.22582,3.27132 -2.56287,3.66388 -1.1129,1.29398 -1.6839,3.04265 -2.91708,4.21636 -2.50603,2.38707 -3.55153,5.27508 -5.92274,7.80094 -1.20411,1.28209 -2.25754,2.94616 -2.73072,4.65121 -0.44014,1.58742 -0.13218,3.23299 -1.23055,4.60628 -1.79493,2.243 -2.77566,7.31453 -1.89934,10.10606 0.7296,2.3223 4.10665,0.90936 5.54868,0.27095 3.32418,-1.46845 5.86854,-3.98109 8.19746,-6.71578 1.2583,-1.47639 2.4016,-3.02018 3.22902,-4.78471 0.70449,-1.5015 0.71109,-5.05964 2.23639,-5.86194 -2.46373,-1.47903 -0.37009,-4.22165 0.76661,-5.81699 0.73357,-1.02832 0.56042,-2.10422 1.0759,-3.18144 0.53795,-1.12348 2.29719,-1.97997 3.13782,-2.93163 0.95298,-1.07986 1.29134,-2.13594 1.8663,-3.42067 0.5168,-1.15124 1.5927,-1.24376 2.47695,-1.95486 1.10894,-0.89086 1.19089,-1.44863 2.66332,-1.7685 1.73545,-0.37669 2.57872,-2.19145 4.18992,-2.81663 -1.01906,1.29002 -1.3376,3.0519 -2.56947,4.18728 0.73489,-0.35158 1.33761,-0.85781 1.80815,-1.52265 -0.13217,0.79834 -0.60404,1.51076 -1.23715,1.9998 1.99847,-0.83798 2.83646,-2.81531 3.74053,-4.62478 1.12084,-2.24432 3.56739,-1.36536 5.39668,-2.41747 -3.06644,-0.50359 1.42484,-3.99828 2.77435,-4.24544 0.81816,-0.14936 2.65274,0.9728 3.41142,1.39047 1.7936,0.98867 3.27396,2.22582 5.18388,3.03473 1.58345,0.67144 2.29587,2.851 0.82344,3.56474 -1.41558,0.68599 -0.92257,2.82192 -1.18692,4.06172 -0.32515,1.51472 -1.5438,4.07494 -3.11139,4.57852 -1.71959,0.55381 -2.18748,2.33156 -3.78812,3.05984 -1.51472,0.68863 -3.48279,1.48432 -3.80133,3.38631 -0.41239,2.45712 2.88008,0.52209 3.55813,0.31854 1.40237,-0.42032 6.56246,-5.94389 8.17367,-3.62026 1.25301,1.80683 -0.56571,6.27696 -0.76397,8.16177 -0.25774,2.4558 -1.70769,8.22389 -4.99091,8.47502 1.12217,-1.15123 -0.45335,-1.78832 -1.24376,-0.79965 -0.67144,0.84063 -0.97016,1.98658 -1.80153,2.70429 -0.88425,0.76264 -1.97337,1.20146 -2.86555,1.94428 -0.95562,0.79305 -1.49357,1.88613 -2.48223,2.66993 -0.72696,0.5776 -4.2124,2.73469 -2.23771,3.44314 0.70713,0.25378 1.47242,0.39785 2.16237,0.69656 0.30664,0.20619 0.55513,0.4679 0.74414,0.78379 0.46922,0.36745 1.49886,0 2.11083,0.3582 -0.98735,0.21015 -2.0302,0.19297 -2.95014,0.66616 0.97545,0.56438 1.94297,-0.24453 2.95014,-0.0925 0.6688,0.10574 1.3191,0.4375 1.99715,0.45865 2.20335,0.0661 4.25734,-0.92654 6.52545,-0.85913 2.19278,0.0661 4.18597,-1.87952 6.05359,-2.78228 2.16898,-1.04946 4.63668,-1.6231 6.93255,-2.33552 4.77678,-1.483 9.62362,-3.22241 13.89946,-5.85929 1.80947,-1.11555 3.80927,-2.15312 5.52886,-3.38763 0.99924,-0.71771 2.58797,-1.59006 0.67012,-1.64689 -1.62046,-1.11159 0,-2.69107 0.31986,-4.01414 0.75208,-0.96884 3.69692,-1.06136 5.25129,-1.2702 1.6773,-0.22469 3.54624,-0.22073 5.21428,0.0661 1.32968,0.22866 2.35139,1.73016 3.70221,1.38915 1.71298,-0.43221 3.24885,-0.16654 4.98033,-0.36876 1.90199,-0.22073 3.49469,-1.44599 5.23147,-2.13991 1.32174,-0.52737 2.8999,-0.49301 3.37573,-2.12668 0.48772,-1.67465 1.57155,-2.82589 2.92634,-3.86214 -0.7719,0.34233 -2.03813,0.64633 -1.04418,-0.76132 -1.09837,0.76 -1.29134,0.17447 -0.76661,-0.51416 0.5406,-0.70846 1.46846,-1.84912 2.2549,-2.1941 5.23278,-2.56947 10.38098,-6.32587 16.4121,-7.80754 l 29.6216,0.0793 c 0.60272,-0.86574 1.15917,-2.42936 2.10951,-2.96599 1.06136,-0.59743 2.38575,-0.27228 3.56739,-0.96884 0.16125,0.3159 0.31986,0.63312 0.47582,0.95166 1.17768,-0.50359 0.73093,-1.66804 2.08439,-1.51208 -0.61064,-0.22998 3.03209,-3.49337 3.98903,-3.94408 1.15124,-0.5406 2.10818,-1.69051 2.67653,-3.39689 0.35026,-1.0521 1.89009,-2.58401 3.30172,-3.51187 1.41955,-0.93183 1.49621,-2.58533 2.51528,-3.81455 1.41558,-1.70638 3.4894,-2.92106 5.19577,-4.3155 1.44996,-1.18428 6.6682,-7.01714 6.18577,-2.37914 -0.25775,2.48092 5.39668,-0.11895 6.13157,-0.3225 4.38158,-1.18429 3.75111,4.36307 2.8087,6.72503 -0.84724,2.11347 -1.84515,4.28642 -2.61044,6.42896 -0.39785,1.11556 -2.39765,4.11592 -1.63896,5.29095 0.80362,1.24508 2.46108,0.21676 1.6535,2.07513 -0.57232,1.31514 -1.49886,2.66596 -0.50359,4.01018 0.79305,-0.8023 1.6046,-0.46526 1.85705,0.56967 0.29872,1.21997 -0.94637,1.56891 -1.10365,2.66463 1.30456,-0.8816 1.26358,0.13218 0.70845,0.7838 -0.59611,0.70713 -1.69183,0.93051 -2.547,1.09969 -1.04153,0.20487 -1.91785,0.35951 -2.83382,0.95959 -0.65823,0.43089 -3.04662,2.19145 -2.17427,0.0132 -0.87367,0.28814 -1.49093,1.33232 -2.47166,1.33232 -0.73621,0 -0.57231,1.3918 -1.42748,1.61914 0,-0.59082 0.0132,-2.14123 -1.01642,-1.89935 -1.1671,0.27493 -1.85706,2.03945 -2.03813,0.18637 -0.0264,0.85517 -0.30929,0.75339 -0.9239,0.71638 -0.72696,-0.0397 -0.67013,1.77246 -0.68863,2.13859 -1.52133,-0.98206 -1.34157,-2.22186 -1.04418,-3.80795 -0.36348,1.10234 -1.64822,1.24905 -2.37914,1.99848 -0.83534,0.85517 -1.22393,2.05134 -2.00905,2.95013 -1.8359,2.10422 -3.5132,1.02964 -5.22089,3.33212 -0.21412,-0.61726 -0.37405,-0.75207 -0.10574,-1.42749 -0.31325,0.28947 -0.63179,0.57496 -0.95166,0.85517 0.61594,-2.43862 -1.18824,0.22734 -1.32174,0.85649 0.0661,-1.05078 0.20355,-2.10818 1.04418,-2.85496 -0.57893,0.26699 -1.02435,0.67937 -1.33496,1.23715 0.98602,-0.23924 -0.34366,2.46109 -0.85914,2.85497 -0.0529,-0.41371 -0.10574,-0.82609 -0.18504,-1.23716 -0.47186,0.38992 -2.02359,1.75396 -0.29079,-0.19165 -1.60459,2.1822 -0.67541,0.23263 -0.3833,-0.38066 -1.03889,0.67277 -3.19333,1.33628 -3.29379,2.79416 -0.0264,0.42032 -2.13858,2.2734 -2.59855,2.54965 -1.80946,1.09044 -8.33359,6.64441 -5.42311,8.83586 -0.91729,0.54059 -4.57588,1.91653 -4.41859,3.32815 0.0793,0.66748 1.61385,0.90672 1.97865,1.50282 0.92125,1.50415 -0.47319,3.3427 1.1856,4.84287 1.39973,1.26491 4.16482,0.0264 4.47939,-1.7751 -1.16313,0 -0.19165,-1.15124 -1.32174,-1.90199 2.0183,-0.0925 1.70769,2.86951 1.05079,3.99828 -0.7719,1.331 -5.79453,2.17691 -7.24977,1.99715 0.29343,-0.68069 0.61461,-1.34685 0.96487,-1.99979 -1.99187,1.03228 -4.10269,2.51263 -6.2915,2.66595 0.41635,-0.99791 0.65955,-2.1214 1.53322,-2.85496 -0.9424,0.47186 -1.99715,1.73677 -2.19409,0 -1.74206,2.16105 -1.83987,4.14102 -4.98298,4.638 -0.61857,0.0925 -5.76412,0.91729 -5.6716,-0.26039 -0.0529,1.24905 -1.93768,1.25434 -2.79285,1.24376 -1.86498,-0.0264 -2.83778,0 -4.62214,0.71639 -3.56342,1.42352 -7.03696,2.6078 -10.09812,4.89177 1.49489,-1.86101 2.89065,-3.6533 2.56418,-6.18708 -1.23583,2.09364 -0.39917,6.0602 -3.6044,7.02243 -2.5047,0.75207 -2.69635,2.68975 -0.0132,2.97128 -0.47847,2.47827 -2.12801,4.65386 -3.42332,6.75675 0.31722,-0.63443 0.63444,-1.26887 0.95166,-1.90331 -2.10422,-0.0529 -2.6501,5.76809 -5.03585,5.5619 -0.76265,-0.0661 -2.68314,3.06645 -3.18144,3.60704 -1.12084,1.21204 -2.65803,2.81928 -4.43181,2.91709 0.23263,-0.60271 1.77114,-2.10686 0.87896,-2.71618 -1.48696,-1.0151 -2.49281,-1.0759 -3.54227,-2.79417 -1.88613,-3.08495 3.03208,-4.08948 4.56795,-5.43369 -2.3342,0.9847 -6.40121,2.47827 -5.23147,5.79056 0.67674,1.91653 -0.0396,3.83174 0.77851,5.8474 0.65294,1.61649 0.29872,2.80738 -0.78247,3.3982 1.42616,0.29211 0.75207,1.636324 0.18504,2.379144 0.99131,-2.172954 -0.22602,-0.19958 -0.40842,0.27228 -0.29078,0.75604 -1.42087,1.29002 -1.99451,1.80947 -1.54908,1.40501 -2.60119,2.94088 -3.87667,4.57984 -1.14199,1.46846 -2.73601,2.5589 -3.84099,4.00489 -0.65294,0.85384 -1.38255,3.16954 -2.72808,3.13385 -0.46526,-2.13462 1.48828,-4.37101 2.77037,-5.82228 0.64369,-0.72828 2.32099,-3.14972 3.13782,-3.31361 -0.77983,-0.30929 -1.51207,-0.21413 -2.19409,0.28549 0.25377,-0.91993 2.70561,-2.76244 0.27756,-2.7598 0.46394,-0.608 0.81552,-1.27416 1.0574,-1.9998 -0.96355,1.58213 -1.5438,-0.76132 -1.81079,1.42749 -0.17447,-0.51416 -1.60063,-1.4341 -1.44731,-1.95883 0.27228,-0.93579 1.67333,-1.418234 0.88028,-2.512644 0.67145,0 1.30589,0.16919 1.90199,0.47583 -0.18636,-0.79304 -1.1248,-2.44258 -2.19409,-1.80814 0.45996,-1.34025 1.19485,-0.44543 2.06456,-0.97942 1.46317,-0.9001 -0.83931,-1.50546 -1.68126,-0.82873 0.47187,-1.56362 2.60913,-0.98999 2.94749,-2.7598 -0.30532,0.26963 -0.62254,0.52341 -0.95165,0.76132 -0.80627,-2.59194 3.00168,-3.30436 4.75828,-3.52112 -0.32648,-0.2432 -0.64369,-0.49566 -0.95166,-0.76133 0.73489,-0.35158 1.3376,-0.85913 1.81079,-1.52265 -0.65162,0.40578 -1.31646,0.78644 -1.99583,1.14199 0.304,-0.3344 0.59082,-0.68466 0.85913,-1.04682 -0.99131,-0.11896 -1.46714,0.44939 -1.94693,1.20279 -0.33176,0.52208 -2.2007,2.10025 -1.01378,0.13217 -0.53398,0.39124 -0.91332,0.89879 -1.1367,1.52265 -0.37537,-1.81079 -2.12404,0.28946 -1.99583,1.14199 -0.35159,-0.15068 -0.6992,-0.30929 -1.04418,-0.47583 0.13482,0.72299 0.44807,1.35611 0.93844,1.90331 -1.19882,0.11896 -1.05343,0.31193 -0.27757,1.04682 -2.71486,-1.67994 -1.97336,6.784514 -2.66992,7.613254 -1.41427,-0.94901 -1.66936,-2.354034 -1.1367,-3.901794 -0.44675,1.26623 -0.77983,2.388394 0.16125,3.535664 0.73225,0.89218 1.7077,2.22847 0.49962,3.22242 -0.37273,-1.47903 -3.8238,-1.5015 -3.23827,-3.23563 -0.49433,-0.0925 -0.61858,0.22469 -0.37009,0.95165 -0.66616,-0.37009 -1.19486,-0.9847 -1.43145,-1.71298 -1.55305,1.38651 -2.28662,-0.39784 -0.94901,-1.654824 1.02171,-0.95959 3.37573,-1.90728 2.56418,-3.67313 0.0661,1.81344 -5.26318,5.152164 -4.11987,6.167264 0.69259,0.61593 1.83061,-0.18372 2.38574,0.76926 0.9358,1.60327 1.22394,1.1552 2.92767,1.60327 0.69656,0.18372 1.17106,1.69316 1.78039,2.19806 1.01906,0.84063 0.86177,1.30324 -0.0529,2.31966 -2.42673,2.68447 -3.93484,-1.41426 -4.81908,-3.35062 -0.0925,1.77775 1.32835,4.45428 2.86025,5.32531 1.88349,1.07061 1.47243,2.67389 -0.86574,2.28794 0.13878,0.34497 0.26699,0.69391 0.38331,1.04682 -1.46185,0.85385 -2.19146,-1.18428 -2.94882,-1.99848 1.00717,1.80683 4.81776,4.50847 1.33232,5.70862 -1.18032,-3.41407 -3.40481,-3.14443 -6.47126,-4.28113 0.32251,0.64501 2.38972,0.79436 3.1788,1.35743 1.08779,0.77718 3.3493,2.69239 2.05531,4.16085 0.59875,-0.64105 1.36536,-0.57893 1.90331,0.0925 -0.15332,-1.53455 1.43674,-1.02567 2.31834,-0.77322 1.11159,0.31986 0.85649,1.20411 0.85385,2.2734 0,1.41691 -0.13879,2.79417 -0.26303,4.20447 -0.15861,1.81079 0.8935,3.76036 0.32779,5.52489 -0.0925,-1.53322 -0.15596,-3.12328 -0.58949,-4.6076 -0.42032,-1.43938 0.72299,-2.92899 -0.36216,-4.2428 -0.0661,0.51019 -0.29475,1.53719 -0.85914,0.57099 -0.0264,1.86366 1.21865,3.79605 0.29211,5.61477 0.0925,-0.74546 -0.0925,-1.41162 -0.56967,-1.99848 -0.38199,1.02568 -1.1367,1.14596 -1.81476,0.2855 0.18637,0.33572 0.34498,0.68599 0.47583,1.04682 -0.74414,0.47187 -1.4103,0.3767 -1.99848,-0.28549 0.94902,1.93503 -0.97148,0.44542 -1.61913,0.0925 0.27492,0.30136 0.52869,0.61725 0.76132,0.95165 -0.93579,0.23924 -1.73016,1.2887 -2.7598,0.66616 -1.09308,-0.66087 -0.59214,-2.15312 0,-2.95013 -0.50755,0.43618 -1.81608,3.51848 -0.98734,4.03132 0.73753,0.456 1.75263,-0.58685 2.49545,-0.3159 0.60536,0.22073 3.56739,-0.79569 3.43653,0.55646 -0.0925,0.92522 -0.608,2.2615 -1.23318,2.9607 0.85517,-0.28153 1.18692,-0.9913 1.40633,-1.7936 0.28682,-1.05475 1.45128,-0.7534 2.11215,-1.44203 0.71506,1.47771 -0.65294,2.51925 -0.85781,3.90179 -1.33232,-0.96355 -2.23904,1.24905 -2.93824,1.98791 -1.29531,1.370645 -3.70881,0.589495 -5.05171,-0.27493 0.19827,-0.3344 0.42032,-0.65162 0.66616,-0.95297 -0.7481,0.17711 -1.25698,0.71506 -1.04682,1.52265 -1.24905,-0.61462 -2.76244,-0.45468 -3.90179,-1.33232 0.69128,0.7296 5.3795,2.561538 3.40349,3.329471 -0.75471,0.293427 -0.27624,1.249048 -0.96751,1.732807 -1.53058,1.073256 -2.35799,0.962229 -3.86346,-0.207514 0.11896,1.321744 1.01906,1.794928 2.24829,1.642928 0.8327,-0.10574 3.48544,-1.245083 3.0823,-0.02643 0.42428,-0.236592 0.86839,-0.426923 1.33232,-0.572315 -0.51548,0.841951 -1.3984,1.90992 -2.28397,2.379139 -0.50226,0.265671 -3.3797,0.03965 -2.66464,0.761325 -1.50546,-0.245845 -3.57532,-0.475828 -4.6988,0.523397 -0.76661,0.684664 -2.3646,1.855729 -1.86762,-0.142748 -0.48641,0.430889 -0.456,1.214683 -0.62122,1.781711 -0.17844,0.608002 -1.483,0.853847 -1.97865,1.126126 -2.1637,1.184283 -3.38763,3.242239 -4.63272,5.277725 0.16654,-0.625185 0.22999,-1.258301 0.19033,-1.903312 -0.84856,3.691632 -4.28113,2.504705 -7.28942,3.404813 -3.41406,1.024352 -5.58833,4.085511 -7.65157,6.777904 -0.51284,-0.687307 -0.29079,-1.438057 0.38066,-1.903311 -1.12745,0.633115 -0.24584,2.693714 -1.52265,2.950133 -0.68863,0.137461 -0.40181,0.608002 -0.84195,1.00849 -0.78247,0.711099 -1.01113,-0.01322 -1.72752,0.418993 -0.76132,0.466576 -4.20711,4.693514 -4.66179,2.093643 0.42163,2.145191 -1.37065,2.43994 -2.83382,3.21316 -0.91597,0.48508 -1.65482,0.956943 -2.7413,0.754716 -0.46261,-0.09252 -3.33344,0 -0.89614,0.409741 -2.89066,0.577602 2.06721,0.220731 -0.95166,1.427484 2.30248,-0.224697 -1.52397,1.678615 -1.14198,-0.570994 -0.25378,2.570792 -1.04815,-0.383306 -1.14199,-0.951656 0.0264,0.84856 0.33176,1.654824 0.35026,2.502062 0.0264,1.05343 -2.24564,2.668601 -0.92125,0.733568 -1.50018,2.264148 -1.67465,3.092881 -4.37762,3.901789 0.13217,0.315897 0.2551,0.633115 0.38066,0.952977 -0.60404,0.374054 -1.23847,0.437498 -1.90331,0.190331 -0.0396,0.35555 0,0.703168 0.0925,1.046822 0.35423,-0.118957 0.70317,-0.239236 1.04682,-0.380662 -0.23527,1.17503 -1.38122,1.670684 -2.4743,1.620458 1.18164,0.648976 0.60271,2.404253 -0.2855,1.520006 0.31061,1.562301 -0.52473,0.945047 -1.71298,0.666159 0.72828,0.241879 1.29928,0.685985 1.71298,1.332318 -0.89085,0.867064 -1.98658,0.761325 -2.4677,2.089677 -0.34233,0.946369 -1.87687,3.334762 -1.09969,4.279809 0.33969,0.331758 0.3159,0.630472 -0.0793,0.8921782 -0.93315,0.630472 -0.27492,0.843273 -0.10574,1.884807 0.32118,2.028877 -0.18108,4.40273 -0.19298,6.460686 -0.0264,4.433129 1.09837,8.907234 2.60516,13.0522228 0.74282,2.039452 0.60536,2.484879 0.0264,4.419913 -0.57232,1.908598 0.0661,3.658588 0.26435,5.557934 -0.7838,-1.961468 -1.12877,-4.055111 -0.29475,-6.060197 0.95694,-2.297191 -1.32439,-1.761885 -1.41823,-3.646692 0,3.484117 0.456,6.808304 1.38518,10.161569 0.50491,1.821364 1.78304,5.556613 0.42164,7.253732 3.11667,-0.436175 -0.79305,12.795806 -1.43541,14.237829 -1.05079,2.357991 -2.54436,7.305279 -4.84552,8.601911 -0.76793,0.433532 -0.45997,-1.410302 -1.42352,-0.05287 -0.6873,0.966195 -1.73413,0 -2.65538,0.342331 -1.53983,0.559098 -3.86082,-0.175791 -2.20335,-2.00112 0.31061,0.679376 0.90011,1.210717 1.61782,1.427484 0.40049,-1.038891 -1.37462,-2.094965 -1.79361,-2.874794 -0.92126,-1.714302 -0.24584,-3.58457 -2.24168,-4.78207 -1.18032,-0.707133 -2.395,-0.807586 -2.53114,-2.43201 -0.13482,-1.600632 0.87764,-3.846275 -1.04682,-4.758279 1.13538,-0.384627 1.70637,-1.549084 2.66596,-2.188808 -0.98602,0.298714 -1.59006,1.468458 -2.57079,1.834581 -0.82213,0.306645 0.0396,-4.200503 0.57099,-4.783392 -0.65823,0.446749 -1.29267,0.415027 -1.90199,-0.09252 1.37065,1.56098 -0.80362,1.895381 -1.52265,0 -0.66087,-1.742059 0.11896,-4.749027 -1.71298,-5.900266 1.48564,-0.10574 4.38555,-3.548884 3.52113,-5.043776 -0.32251,0.215444 -0.63841,0.437497 -0.95166,0.666159 0.0925,-0.822125 -0.43353,-1.473745 -1.14199,-1.808146 -0.45864,0.678054 -0.47979,1.23583 0.22867,1.731485 0.6265,0.438819 -0.73357,1.864981 -0.99131,2.171625 -0.44279,-0.715063 -0.83006,-1.650858 -0.66616,0 -1.20675,-3.888571 2.62763,-7.577559 3.52509,-11.168738 0.31986,-1.279448 0.31193,-2.4267218 0.0529,-3.7220318 -0.43618,-2.203347 -1.30588,-1.502823 -2.67653,-2.803419 -1.99187,-1.890094 -2.65539,-4.635357 -3.7868,-6.999957 -0.54852,-1.147274 -1.79096,-2.404253 -3.01886,-2.808707 -1.79097,-0.590819 -2.95675,1.229222 -4.66312,1.046822 0.29343,1.456562 -1.03624,1.111587 -2.23639,1.855729 -0.4679,0.28946204 -2.58136,1.67729304 -2.33155,0.42692304 -1.34554,1.013778 -3.11139,1.33364 -4.75828,1.33364 0.9913,-1.286057 0.17711,-2.97260304 -1.14199,-3.61629204 0.63311,0.0793 0.53795,-0.265671 -0.2855,-1.046822 1.29267,0.993952 1.70505,-0.248488 0.43221,-0.378018 -1.92049,-0.195619 -0.55513,-1.538511 0.51945,-1.81079 -0.91994,0.03965 -1.83987,0.07931 -2.7598,0.09252 0.25774,0.314575 0.51151,0.631794 0.76132,0.951656 -1.86234,0.473184 -4.95918,-1.683902 -6.56642,-2.474305 0.21544,0.03965 3.49997,0.489045 3.26603,-0.118957 -0.22602,-0.589498 -1.30192,-0.974126 -1.84648,-1.089117 -0.97545,-0.206192 -1.89538,0.655585 -2.74791,0.980734 -1.45392,0.553811 -3.51187,0.557776 -5.04642,0.516802 0.875,-0.09252 1.69977,-0.344975 2.47431,-0.760003 -0.80627,-0.263027 -1.12084,-0.902751 -0.57099,-1.619137 -0.48508,0.539272 -0.92919,1.110265 -1.33232,1.712981 0.57892,-2.6315932 -1.05343,-0.137462 -1.58081,0.418993 -0.78908,0.83402 -1.72752,1.262265 -2.89197,1.200143 0.7177,-0.183722 2.49545,-1.044178 1.42748,-1.998477 -0.79966,2.163695 -3.69824,3.321543 -5.8051,2.472984 2.11347,0.793046 1.1248,-4.3987652 0.76132,-5.4244392 -0.51944,1.110266 -1.15388,2.3738532 -1.8055,3.4087792 -0.49698,0.789081 -1.86895,0.329114 -2.64349,0.758681 -0.41767,0.231305 -2.52321,0.298714 -2.30644,-0.02643 -0.79966,1.204109 -1.78568,-0.793047 -2.66464,-0.428245 0.40049,0.136139 -2.57608,0.779829 -3.20258,0.851203 -1.58345,0.181079 -1.78965,1.085152 -3.31229,1.607241 -2.74262,0.938438 -3.61365,-2.2126 -6.0602,-2.162374 -0.86442,0.01322 -3.77755,2.487523 -2.32098,3.289822 0.95826,0.527376 2.62101,0.45468 3.60968,0.06609 0.80891,-0.31854 2.56022,-0.140105 3.10213,-0.605359 -0.33572,0.438819 -2.39764,1.317779 -2.14255,1.999799 0.64766,1.72355404 1.37726,0.750751 2.17824,-0.118957 1.05211,-1.139343 2.57344,0.334401 1.81343,1.600632 -0.64633,1.07722204 -2.81399,0.19561804 -2.42143,2.03813004 -1.2887,-0.473185 -1.4341,0.44542796 -1.1182,1.43937896 0.51152,1.604598 1.68787,1.752633 3.16029,2.188809 0.71771,0.2128 1.00981,1.229222 1.53851,1.792285 0.53002,0.565706 -1.3376,1.543797 -1.29663,2.287939 -0.99924,-1.505467 -2.06853,-0.03965 -2.95013,0.666159 0.53663,-0.720351 1.07193,-1.453919 1.42748,-2.285296 -0.89878,-0.105739 -0.64897,-0.593463 -1.01378,-1.145952 -0.22337,-0.34101 -2.47562,-1.131413 -2.88801,-1.1367 0.75472,-1.223935 -2.89726,-3.014898 -3.34004,-2.623662 -0.24849,0.220731 0.69391,1.638963 0.60668,2.145191 -0.25114,1.475066 -0.72168,2.776984 -2.31173,3.143107 -0.0397,-1.377257 0.17579,-1.790963 -1.33232,-2.093642 -2.41483,-0.485081 -1.35743,1.340248 -3.07438,1.703728 -2.69636,0.569672 -5.59626,-2.552288 -4.06304,-5.128368 -0.61593,1.152561 -2.10686,0.623864 -2.82986,-0.09252 -0.47054,-0.46261 -0.81287,-1.14330796 -0.5961,-1.81607596 -0.96752,-0.152001 -2.7717,0.676733 -1.52265,-0.952978 -1.19354,0.01322 -4.05776,1.1367 -2.85497,2.75980196 -1.8055,-0.302679 -3.38102,0.608002 -5.31473,0.10574 -2.2734,-0.589498 -4.24544,-1.98129496 -6.4858,-2.67521096 1.04153,-0.91596804 1.49886,-1.77642404 0.95165,-3.14046404 -0.38594,0.999239 -0.59478,3.44182204 -1.85705,3.73524904 -1.18031,0.273601 -3.39159,0.540594 -4.51772,-0.02643 0.57893,-0.85120304 1.72356,-1.48035304 1.61782,-2.66463604 -1.32175,0.662194 -2.58137,2.03813004 -1.52265,3.52112704 -3.50659,0.46128796 -7.11363,1.60856196 -9.99239,3.71145696 0.84592,-1.101013 2.243,-1.820041 3.52113,-2.283974 -1.00585,-0.195618 -1.99848,0.09252 -2.95013,0.380663 0.65029,-0.822125 1.37593,-1.82268596 1.04682,-2.95013296 -0.85385,0.183722 -0.98338,0.997916 -1.71298,1.332318 -0.69524,0.31853996 -0.75208,-0.979413 -1.42749,-0.190331 -0.58289,0.68201996 0.11896,3.25016896 1.04682,3.52112596 -1.64557,1.624424 -3.48015,2.69768 -5.05831,4.419913 -2.15841,2.3553478 -6.20955,1.9218158 -8.07454,4.1449888 0.63444,-0.190331 1.26756,-0.380662 1.90199,-0.570993 -1.54776,0.859134 -3.17086,1.631032 -4.85344,2.188808 0.76132,-0.700524 1.77642,-1.026995 2.4743,-1.808146 -0.65162,0.17447 -1.28605,0.396523 -1.90331,0.666159 1.46846,-0.90936 -1.75527,-0.664837 -2.09364,-1.714302 0.15597,0.658229 0,1.229222 -0.47583,1.714302 0.32251,-2.829854 -3.49205,1.658789 0,1.521328 -1.18296,1.122161 -2.98317,1.611206 -3.80662,-0.190331 0.11896,1.570232 -2.59987,5.014697 -2.18881,2.948811 -0.69788,1.493571 -2.4743,-0.05287 -3.0453,1.71298 0.78247,0.220732 1.44863,0.02644 1.99848,-0.570993 -0.38331,2.946168 -3.28057,2.422757 -5.42444,3.04662 0.37934,0.05287 0.76,0.0793 1.14199,0.09252 -0.31458,0.71242 0.22998,1.178996 0.44543,1.785677 0.26038,0.734889 -1.15653,2.336844 -1.50944,2.891976 -0.94769,1.488284 -3.00564,1.58345 -3.78944,-0.105739 0.44543,0.688628 0.41371,1.353466 -0.0925,1.998477 0.94901,0.222053 1.95222,0.437497 2.85497,-0.09252 -0.26567,1.037569 -0.79833,2.778306 -1.84648,3.301717 -0.87367,0.437497 -0.0529,2.656706 -0.0529,3.359874 0,2.109503 -1.2768,6.475224 0.38066,8.18424 0.32912,-0.273602 0.64634,-0.557777 0.95166,-0.855169 0.24981,1.008491 -2.20731,1.956181 -2.89462,2.052669 -1.35743,0.190331 -2.22978,-2.147835 -3.78547,-2.147835 -1.27284,0 -2.96336,0.292106 -4.13706,-0.378018 -1.46317,-0.835343 -3.12593,-2.743941 -4.64726,-2.999038 -3.01357,-0.504906 -2.12668,-2.721471 -3.32683,-5.306803 -0.87896,-1.895381 -1.0032,-3.527735 -0.59875,-5.479951 0.17051,-0.824769 0.64237,-1.654824 0.41635,-2.474306 -0.21676,-0.778507 -1.67729,-1.410301 -2.10025,-2.656705 -1.13406,-3.009612 -2.96864,-5.477308 -3.77887,-9.482193 -0.31193,-1.640285 -0.13746,-3.314935 -0.53001,-4.9499318 -0.19562,-0.812873 -0.70846,-1.42484 -0.93316,-2.205991 -0.2736,-0.951656 -1.21732,-1.649537 -1.61517,-2.41747 -0.83005,-1.601954 -1.9879,-2.361957 -2.85893,-3.88724996 -0.0925,-0.162574 -2.76509,-0.385949 -3.04662,-0.428245 -3.11799,-0.459967 -6.36684,-0.78115104 -9.11078,0.942404 -2.86026,1.79624996 -3.10478,6.29943196 -6.89554,8.04545596 -1.50415,0.692594 -3.29379,-1.070612 -4.40141,-1.81872 -0.99924,-0.675411 -2.07117,-1.237152 -3.05984,-1.929746 -2.9845,-2.157087 -4.42255,-4.27584196 -4.50979,-7.075297 0.75339,-1.942964 0.304,-4.147633 0.21941,-6.102493 0.20884,-1.9271032 -1.14595,-2.8457152 -2.79152,-3.4510742 -1.61914,-0.596106 -2.92767,-3.854207 -4.13442,-5.920093 -4.70673,-2.558897 -1.64557,-5.193133 -5.42708,-5.498456 l -17.2937,0.01322 -0.23659,5.045097 -26.72171,-0.141427 -31.36895,-13.197615 c 0.36216,-0.971482 1.27416,-1.576841 1.87423,-2.380461 -7.99523,0.253774 -15.99971,1.374614 -23.95264,2.161051 -0.0925,-2.237713 0.71506,-4.396121 0.74546,-6.608721 0.0397,-2.697679 -1.85705,-3.727318 -3.37045,-5.645169 -1.55305,-1.968077 -1.55965,-0.830055 -3.43653,-1.523971 -1.28077,-0.471863 1.48696,-3.837023 -2.21657,-3.706171 -2.27075,0.07931 -3.14707,-0.574958 -4.32342,-2.441261 -1.24244,-1.970721 -3.81191,-1.637641 -5.80378,-2.067208 -1.30588,-0.281532 -5.438977,0.519445 -4.92614,-2.114791 0.322506,-1.656132 2.104217,-3.19332 2.175591,-4.891762 0.06609,-1.628389 -2.03813,-1.349501 -0.943725,-3.174829 0.684663,-1.140661 -0.785117,-2.524531 -1.608563,-3.414061 -0.810229,-0.87764 -0.724316,-2.01302 -0.783794,-3.18408 -0.09252,-1.7077 -2.37914,-3.40085 -1.919173,-4.93672 0.720351,-2.40689 1.02303,-2.39236 2.692393,-4.03793 1.952216,-1.92446 0.226018,-2.36856 -1.332318,-3.46165 -2.314374,-1.62178 -0.335723,-3.15368 -0.753394,-5.16669 -0.247167,-1.18957 1.101012,-3.8661 2.459765,-3.93351 0,0.63972 -0.688628,1.27548 -0.570993,1.90199 0.148035,0.78908 1.135378,1.41691 1.617815,1.99979 0.799655,-2.58268 -0.738855,-5.48788 2.379136,-6.85324 -2.832494,-3.00829 -2.459763,2.73205 -4.221648,2.35667 -1.128769,-0.24056 -2.449191,-3.33476 -3.677092,-1.59534 0.637081,-0.77322 1.521328,-3.13122 2.188809,-1.04683 -0.05287,-0.88292 -0.118957,-1.79228 -0.756038,-2.47827" />
  </g>
  <!--
/*
 * Countries with subnational territories (Australia, China, France, Netherlands)
 *
 */
-->
  <g
     id="cn"
     class="landxx coastxx cn"
     transform="translate(-1811.8991,-176.45765)">
    <title
       id="title2460">China</title>
    <g
       id="cnx"
       class="landxx coastxx cn cnx">
      <title
         id="title2462">China, People's Republic of</title>
      <path
         id="path2708"
         class="landxx cn cnx"
         d="m 1826.53,357.318 c 1.01,0 1.73,-0.506 1.51,-1.584 -0.3,-1.48 -1.02,-1.203 -0.57,-2.765 0.37,-1.264 1.43,-0.818 2.37,-1.195 1.09,-0.439 1.52,-1.982 2.81,-2.016 -0.21,-0.464 -0.26,-0.944 -0.15,-1.44 0.74,0.153 2.24,0.881 2.93,0.265 0.51,-0.462 1.08,-1.231 1.81,-1.333 0.77,-0.106 1.13,1.881 1.65,2.336 0.88,0.773 2.59,-0.276 3.72,-0.178 2.06,0.179 2.21,-2.749 2.45,-4.184 0.19,-1.183 0.73,-1.627 2.02,-1.436 1.63,0.242 3.14,0.273 4.72,-0.08 0.82,-0.183 1.96,0.123 2.64,-0.519 0.74,-0.709 0.61,-2.109 1.32,-2.937 1.77,-2.083 5.24,-2.29 7.3,-3.976 0.83,-0.678 1.26,-1.044 2.31,-1.07 1.36,-0.03 0.99,-0.525 0.58,-1.509 -0.53,-1.253 -0.99,-2.351 -1.61,-3.555 -0.8,-1.576 0.91,-1.927 2,-2.203 -0.42,-0.4 -0.9,-0.712 -1.44,-0.936 0.44,-0.657 1.19,-1.645 2.09,-1.008 0.58,-1.317 -1.02,-1.447 -1.08,-2.542 -0.1,-1.434 -1.51,-2.438 -2.3,-3.506 -1.09,-1.466 -2.24,-2.94 -2.86,-4.677 -0.41,-1.145 0.27,-3.008 -0.81,-3.505 -0.92,-0.419 -4.65,0.02 -3.61,-1.539 0.6,-0.881 2.81,-1.13 3.79,-1.438 1.8,-0.561 3.57,-0.705 5.37,-1.354 1.8,-0.646 2.07,0.26 3.56,0.852 1.18,0.475 2.19,-0.746 3.37,0.08 1.37,0.955 1.39,-0.624 1.11,-1.555 -0.43,-1.395 -2.17,-0.586 -2.87,-1.627 -0.6,-0.89 0,-2.592 0.11,-3.563 0.12,-1.464 -0.24,-3.002 -0.23,-4.479 0,-1.397 0.6,-2.932 0.32,-4.291 -0.34,-1.639 0.51,-2.101 1.96,-1.404 1.22,0.588 2.29,1.147 3.63,1.463 1.75,0.411 3.43,-0.246 5.18,-0.07 1.35,0.134 1.82,1.904 3.06,0.859 0.95,-0.804 2.26,-0.912 3.16,-1.718 1.65,-1.469 -2.46,-5.515 -2.93,-7.1 -0.25,-0.86 -0.44,-3.209 0.42,-3.812 0.83,-0.58 2.04,0.01 2.95,-0.396 2.32,-1.037 2.14,-2.114 1.41,-4.265 -0.48,-1.405 1.13,-1.392 2.05,-1.413 1.01,-0.02 2.52,0.693 4.43,-0.219 0.58,0.546 1.38,1.493 0.91,1.619 -1.25,0.342 1.01,1.337 1.34,1.48 1.66,0.708 0.14,1.305 1.15,1.783 1.41,0.663 3.32,0.693 4.39,1.994 1.2,1.46 4.48,3.168 6.31,2.646 1.9,-0.539 3.77,2.458 4.63,0.989 0.76,0.238 2.81,1.416 3.67,2.24 1.21,1.165 1.81,2.707 3.07,3.804 1.1,0.955 2.53,1.829 3.66,3.243 1.62,2.029 1.46,1.125 1.59,2.292 0.39,3.522 1.98,3.741 1.08,4.985 -1.02,1.398 -0.92,2.834 0.33,4.023 0.86,0.817 1.97,1.966 3.27,2.297 1.61,0.407 3.2,0.627 4.91,0.848 1.6,0.206 3.38,0.523 5,0.643 1.56,0.113 3.05,-0.129 4.61,-0.06 2.92,0.124 5.56,1.729 7.83,2.783 0.79,0.367 1.57,0.679 1.88,0.87 1.98,1.213 2.85,1.601 4.4,2.188 1.12,0.426 2.02,0.248 3.19,0.406 1.51,0.204 0.87,1.418 1.62,2.054 1.31,1.094 2.3,1.189 3.3,2.717 0.8,1.206 1.87,2.363 2.82,3.45 1.11,1.269 2.78,1.962 4.06,3.027 0.89,0.745 0.86,1.802 2.04,1.967 1.43,0.199 3.08,-0.381 4.72,-0.484 2.46,-0.155 7.09,1.299 10.78,1.463 1.82,0.08 3.6,0.483 5.42,0.437 1.74,-0.04 2.95,-1.113 4.73,-0.989 1.89,0.132 3.97,0.679 5.85,0.93 1.62,0.215 3.11,-0.424 5.14,0.631 1.39,0.719 2.33,2.019 3.76,2.558 2,0.751 4.4,1.072 6.57,1.579 3.22,0.752 5.96,2.047 9.99,1.714 1.42,-0.118 1.53,0.352 2.68,1.09 1.17,0.747 4.39,0.533 3.6,0.663 -1.3,0.21 6.66,-4.475 8.38,-4.954 1.22,-0.34 3.29,-1.226 5.12,-1.34 1.98,-0.123 3.79,-0.678 6.22,-0.66 3.13,0.02 6.91,0.637 9.08,-0.783 1.23,-0.802 3.24,-1.227 4.17,-2.334 0.9,-1.06 1.07,-2.676 1.78,-3.848 0.62,-1.029 1.59,-0.785 2.64,-2.026 0.44,-0.521 0.96,-0.811 1.49,-1.383 0.27,-0.299 0.72,-0.136 0.8,-0.476 0.48,-2.063 -4.71,-4.266 -5.96,-5.612 -0.9,-0.962 0.2,-1.502 -0.33,-2.698 -0.68,-1.542 0.27,-3.113 1.69,-3.577 2.04,-0.666 3.46,1.427 9.44,2.7 0.8,0.169 2.87,0.587 3,-0.02 0.29,-1.342 2.01,-1.394 2.6,-2.362 0.54,-0.887 0.5,-1.958 1.17,-2.777 0.63,-0.784 2.36,-0.05 3.2,0.03 2.24,0.216 4.7,-1.182 6,-3.131 0.57,-0.853 -1.12,-1.632 -0.37,-3.233 0.61,-1.3 0.19,-2.433 3.36,-2.121 1.02,0.101 1.67,0.347 1.8,-1.142 0.11,-1.24 1.85,-0.285 2.41,-0.321 0.4,-0.03 1.95,-1.146 2.76,-1.326 0.65,-0.145 1.2,-0.06 1.84,0.01 1.28,0.552 1.99,-0.548 1.83,-0.28 0.5,0 1.6,0.605 2.18,0.718 1.06,0.203 2.06,0.408 3.13,0.3 3.56,-0.358 0.16,-3.342 -1.17,-4.26 -3.96,-2.74 -7.88,-4.902 -11.81,-6.806 -1.84,-0.89 -4.68,-1.544 -5.81,0.628 -1.52,2.944 -3.75,-0.432 -6.04,0 -0.84,0.154 -2.38,-0.02 -3.16,0.128 -1.02,0.19 -1.15,1.57 -2.51,0.806 -0.86,-0.486 -3.99,-2.07 -3.19,-3.417 0.44,-0.759 1.05,-0.733 0.45,-1.679 -0.59,-0.939 -0.6,-1.724 -0.58,-2.786 0.1,-3.197 -0.26,-6.393 -0.51,-9.576 2.37,1.137 4.98,1.107 7.27,2.124 2.61,1.157 2.8,-1.152 4.39,-2.609 1.11,-1.011 3.92,-0.808 4.2,-1.994 0.22,-0.953 -1.52,-1.252 -2.15,-1.911 -0.46,-0.482 -0.24,-1.041 -0.29,-1.599 -0.1,-0.889 0.52,-1.29 0.11,-2.203 -0.25,-0.415 -0.28,-0.851 -0.11,-1.309 0.37,-0.939 -0.17,-1.465 -0.17,-2.388 0,-1.956 -0.95,-3.614 0.91,-4.998 2.08,-1.546 -0.78,-3.225 -1.53,-4.588 -0.67,-1.209 -2.25,-2.199 -3.67,-1.633 -1.27,0.506 -1.87,-0.47 -2.62,-1.299 2.04,-0.689 1.4,-3.951 3.82,-4.419 2.87,-0.557 5.63,-1.657 8.59,-1.494 2.94,0.161 5.39,-1.294 8.25,-0.117 1.03,0.425 3.09,0.69 4.09,1.454 1.42,1.099 3.33,1.034 4.91,1.839 -0.48,-2.136 6.24,0.08 5.96,0.939 -0.23,0.706 2.76,1.456 3.49,1.859 0.57,0.313 0.2,0.721 0.7,1.023 0.79,0.472 1.46,0.89 2.23,1.447 1.5,1.08 3.6,1.932 4.33,3.256 0.61,1.1 1.63,2.058 2.65,2.726 0.93,0.615 1.51,1.691 2.93,2.176 1.47,0.499 2.18,2.369 3.34,3.244 1.31,0.98 2.71,1.882 3.98,2.924 1.08,0.883 1.31,2.163 2.33,3.081 1.14,1.023 2.05,0.662 2.59,2.233 0.88,2.573 4.89,4.803 7.5,4.314 1.11,-0.207 2.7,-0.314 3.7,0.241 1.64,0.908 3.19,1.09 4.89,1.786 -1.29,-2.261 1.99,0.622 2.52,0.648 1.23,0.06 2.74,1.852 3.79,2.462 1.71,0.985 3.24,0.194 4.89,0.85 0.49,0.196 0.25,1.431 0.62,1.881 0.43,0.511 1.3,0.879 1.87,1.203 1.66,0.959 1.34,1.997 1.99,3.474 0.47,1.049 3.79,2.939 4.82,3.394 0.61,0.268 1.26,-0.377 1.94,-0.377 1.02,0 1.86,0.63 2.9,0.504 1.17,-0.143 5.11,0.02 4.7,-1.346 -0.44,-1.446 1.79,-2.528 3.22,-2.375 0.1,0 1.33,0.547 1.41,0.19 0.19,-0.827 0.13,-1.06 1.05,-1.303 0.85,-0.224 2.31,-1.36 3.34,-1.142 0.58,0.122 2.38,0.594 2.77,1.008 -0.1,0.975 0.18,1.771 0.86,2.467 0.99,1.018 3.1,2.236 2.14,3.947 -0.21,0.363 -0.92,0.791 -1.23,1.103 -0.76,0.777 0.38,1.354 0.67,1.985 0.25,0.512 0.12,1.118 0.23,1.658 0.21,0.994 1.11,1.83 1.04,2.881 -0.1,1.237 2.61,3.237 0.54,3.887 1.29,0.941 0.2,1.298 0.26,2.405 0,0.817 1.11,1.416 0.82,2.237 -0.31,0.893 -1.8,0.244 -0.78,2.404 0.28,0.586 0.76,1.262 0.87,1.916 0.16,1.054 -5.54,-0.69 -6.44,-0.893 -0.39,-0.09 -2.85,-1.156 -3.03,-0.816 -0.38,0.751 -0.31,2.102 -1.09,2.556 -0.63,0.364 -1.68,0.515 -2.11,1.014 -0.41,0.479 1.29,1.62 1.51,1.845 2.09,2.168 3.66,4.7 5,7.378 1.12,2.245 3.39,3.689 3.19,6.345 -0.1,1.158 0.55,1.844 -0.79,1.646 -1.13,-0.166 -2.16,0.02 -2.81,1.196 2.14,0.494 3.08,2.424 3.9,3.405 1.14,1.362 -4.44,-2.47 -5.47,-4.013 -0.86,-1.278 -1.98,-1.638 -3.47,-1.553 0.27,0.919 1.73,3.543 1.14,4.44 -0.46,0.697 -1.81,-0.02 -2.44,0.511 -0.92,0.783 0.76,2.395 -1.26,2.91 -1.81,0.461 -3.7,0.03 -5.5,0.492 0.94,1.282 4.41,2.772 4,4.537 -0.21,0.943 -4.35,0.308 -5.31,0.16 -0.9,-0.136 -1.83,-0.332 -2.63,-0.794 -0.92,-0.542 -1.82,-2.126 -3.04,-1.989 -0.64,0.07 -0.75,0.804 -1.52,0.82 0.1,1.637 0.19,2.52 -0.35,4.097 -0.24,0.696 -0.35,1.874 -0.99,2.348 -0.32,0.242 -1.85,0.302 -1.76,0.846 0.13,0.707 -0.51,0.611 -0.83,1.134 -0.37,0.339 -0.79,0.548 -1.29,0.627 -0.44,0.223 -0.87,1.265 -1.12,1.342 -1.57,0.475 -2.78,2.191 -2.76,3.948 0,2.069 -3.14,2.139 -4.29,0.925 0.16,1.093 -1.36,0.969 -2.02,0.935 0.27,0.8 -0.45,0.95 -1.05,1.051 -1.25,0.208 -2.15,1.162 -3.12,1.901 -0.97,0.731 -1.63,1.039 -1.75,2.361 -0.1,0.963 -1.2,0.872 -0.92,1.814 -0.48,-0.331 -1.01,-0.475 -1.58,-0.432 0.77,1.04 -2.59,3.581 -3.34,1.122 -0.39,-1.283 2.09,-1.258 2.43,-1.631 0.5,-0.541 -0.14,-0.989 -0.2,-1.529 -0.1,-0.674 0.99,-1.027 1.32,-1.49 -2.24,0.992 -3.4,-0.533 -5.4,-0.864 0.36,-0.508 0.9,-0.885 1.52,-1.008 -1.26,-1.89 -0.37,-1.584 1.03,-2.981 0.64,-0.641 0.9,-2.553 0.98,-3.427 0.27,-3.147 -4.59,-2.48 -4.97,-5.256 0.23,1.828 -1.65,1.03 -2.62,0.683 -1.22,-0.439 -3.85,0.943 -1.98,1.693 -1.42,0.278 -2.26,2.466 -2.14,3.806 0.1,1.104 -3.16,2.316 -3.91,2.818 -0.72,0.485 -1.39,0.841 -1.8,1.656 -0.67,1.33 0.63,1.988 0.31,3.008 -0.76,2.419 -2.8,1.608 -4.61,2.711 -1.23,0.755 -2.52,-1.225 -3.88,-0.969 -1.97,0.372 -0.98,3.598 -0.53,4.819 0.79,2.137 3.2,2.92 4.92,4.124 0.54,0.38 1.83,0.521 2.45,0.277 1.02,-0.403 1.26,1.076 2.13,1.221 0.24,-0.504 0.24,-1.008 0,-1.512 1.46,0 3.46,1.464 4.14,2.754 0.95,1.778 -0.39,3.495 1.55,4.988 1.31,1.002 2.9,1.273 4.48,1.019 1.12,-0.18 2.47,-0.795 1.2,-1.921 0.61,-0.36 3.48,-2.736 1.37,-2.735 1.21,0.226 2.32,-0.839 3.41,-1.168 1.03,-0.312 2.69,0.764 3.31,1.517 0.53,0.656 0.99,0.578 1.73,0.354 0.43,-0.128 0.95,0.731 1.17,0.952 1,1.013 2.68,-0.478 3.7,0.576 0.11,-0.306 0.21,-0.617 0.29,-0.936 1.52,1.073 3.64,0.273 5.11,1.368 -0.27,0.138 -0.53,0.282 -0.79,0.432 1.59,1.29 -0.82,1.652 0.69,2.726 0.6,0.431 0.52,1.086 -0.27,1.402 -1.32,0.522 -1.45,-0.681 -2,-1.464 -0.17,0.375 -0.36,0.735 -0.58,1.08 -0.16,-1.083 -0.84,-0.768 -1.45,-0.219 -0.35,0.317 -2.86,2.111 -1.43,0.58 -0.82,0.528 -2.3,1.925 -3.22,2.092 -0.65,0.118 -2.21,-0.751 -1.82,0.571 1.06,-0.93 2,0.46 1.37,1.44 -0.31,-0.759 -1.2,-0.81 -1.37,0.07 -0.15,0.748 0.68,1.184 0.54,1.955 -0.1,0.353 -1.15,0.857 -1.47,0.781 -1.02,-0.242 -0.59,-1.434 -1.45,-1.872 0.97,1.394 -0.39,0.234 -1.15,0.36 0,0.938 1.18,2.255 2.16,2.232 -2.04,0.308 -0.86,3.904 -3.31,3.312 0,0.97 -0.19,3.019 -0.69,3.858 -0.84,1.396 -0.14,2.315 0.26,3.702 1.03,-0.984 2.69,0.42 3.52,1.03 1.63,1.204 3.53,1.648 5.34,2.476 1.43,0.649 1.95,2.793 2.8,3.981 1.28,1.8 2.49,3.883 4.14,5.363 1.13,1.02 2.24,2.55 2.34,4.084 0.12,1.822 2.88,2.08 4.2,2.665 1.15,0.513 0.64,1.196 1.2,2.072 0.43,0.673 1.14,0.674 1.81,1.009 1.09,0.552 3.54,1.767 2.8,3.383 -1.56,-0.431 -3.28,-1.986 -4.99,-1.5 -2.28,0.653 -2.2,-0.978 -4.15,-1.704 -1.96,-0.729 -2.81,1.764 -4.46,0.86 -0.81,-0.447 -1.27,-1.21 -1.79,-1.946 -0.65,-0.913 -1.58,-0.861 -2.46,-1.397 0.44,0.342 0.61,0.933 0.35,1.439 0.4,-0.467 0.84,-0.491 1.3,-0.07 -0.27,-0.206 -0.54,-0.422 -0.79,-0.647 0.87,-0.327 2.64,1.974 0.94,1.224 1.17,0.782 2.53,2.522 4.16,1.779 0.66,-0.299 0.58,-0.936 1.42,-0.892 0.72,0.04 1.65,0.357 2.11,0.943 0.29,0.364 0,0.808 0.44,1.05 0.8,0.396 1.73,0.514 2.56,0.837 1.79,0.699 3.33,2.311 5.06,3.217 0.95,0.5 3.02,2.487 2.96,3.689 0,0.558 -1.2,0.345 -1.52,0.374 -1.22,0.111 -1.88,1.114 -2.79,1.787 -0.6,0.449 -1.34,0.681 -1.47,1.47 -0.1,0.351 -0.13,1.203 -0.64,1.234 -0.87,0.05 -1.37,-0.79 -2.35,-0.41 -0.83,0.319 -1.44,1.066 -2.1,1.625 0.46,-0.227 2.2,-1.662 2.7,-1.309 0.96,0.671 0.98,2.494 2.42,2.461 -0.3,-0.19 -0.62,-0.358 -0.94,-0.504 1.71,0.259 2.77,-1.77 4.41,-1.299 1.14,0.324 1.7,1.249 2.47,2.034 0.93,0.932 2.97,1.134 4.21,1.425 -0.85,0.398 -1.22,1.041 -1.8,1.728 -0.2,0.365 -0.44,0.701 -0.72,1.008 -0.44,0.341 -1.02,0.16 -1.44,0.576 0.14,0.279 0.33,0.519 0.57,0.72 0.44,-0.63 1.29,-1.51 2.09,-0.792 -0.42,-0.422 -0.34,-1.564 0.49,-1.112 0.92,0.503 0.12,1.281 0.56,2.019 0,0.01 0.88,2.443 0,1.839 -0.52,-0.336 -0.47,-1.201 -0.93,-1.594 0.11,0.474 0.19,0.954 0.22,1.44 -0.61,0.16 -1.02,-0.226 -1.15,-0.793 0.26,1.335 -0.12,0.488 -0.44,0 -0.13,0.58 -0.37,1.108 -0.72,1.584 0.93,-0.188 2.31,0.694 2.45,1.656 -0.43,-0.452 -0.76,-0.404 -1,0.145 0.76,-0.05 1.62,1 0.76,1.527 -1.07,0.653 -2.58,-0.628 -3.5,-1.023 0.49,0.386 0.78,1.199 1.37,1.439 0.83,0.339 1.4,-0.346 1.92,0.678 0.24,0.489 1.59,1.726 0.92,2.326 -0.61,0.545 -1.38,0.506 -1.04,1.604 -0.94,-0.432 -0.99,-1.689 -1.95,-2.088 -0.27,0.476 -0.3,0.574 -0.79,0.792 1.43,0.192 -0.69,4.439 -3.02,1.584 0.31,1.05 2.63,0.847 2.33,2.06 -0.27,1.044 -1.33,2.938 0,3.629 -0.73,0.343 -0.72,0.813 -0.61,1.503 0.22,1.489 -1.03,-0.07 -0.61,0.944 -0.49,-0.425 -0.97,-0.857 -1.44,-1.296 0,0.52 2.52,2.313 0.43,1.872 0.37,0.854 -0.29,1.634 -1.08,1.872 0.87,1.215 1.52,3.375 -1.01,2.736 0.76,-0.314 1.12,-1.102 0.79,-1.872 -0.34,0.273 -0.61,0.609 -0.79,1.008 -0.48,-0.35 -0.86,-0.859 -1.01,-1.44 -0.3,0.532 -0.84,0.854 -1.44,0.576 0.37,0.412 0.52,0.892 0.44,1.44 1.18,-0.533 2.55,1.533 0.86,1.368 0.1,0.889 1.17,1.366 1.44,0.288 0.89,0.921 -0.1,0.879 -0.71,1.476 -0.62,0.614 -0.94,1.462 -1.23,2.268 -0.78,-0.725 -1.96,-1.135 -2.96,-1.439 0.78,0.489 1.26,1.863 2.37,1.678 1.1,-0.184 1.48,-1.331 2.39,0.05 -0.74,0.305 -0.47,1.511 -0.71,2.274 -0.38,1.26 1.57,1.3 1.14,2.622 -0.23,-0.96 -0.49,-0.96 -0.8,0 -0.45,-0.693 -1.09,-1.283 -1.87,-1.584 -0.1,0.605 -0.4,1.138 -0.93,1.439 0.52,0.284 1.84,0.466 1.62,1.368 -0.31,1.301 -1.33,-0.572 -1.33,1.081 -0.16,-0.745 -0.88,-2.033 -1.66,-0.936 0.99,0.349 0.13,1.819 1.29,1.871 -0.26,0.797 -1.94,2.021 -1.94,0.648 -0.79,0.634 -0.61,0.804 0,1.225 0.82,0.524 0.12,1.773 -0.27,2.303 -0.42,-0.417 -0.83,-0.85 -1.22,-1.296 -0.25,0.948 -1.49,1.549 -2.01,0.432 -0.55,0.792 -1.89,0.292 -1.08,1.439 -0.55,-0.16 -1.1,-0.185 -1.66,-0.07 0.5,0.548 1.23,0.756 1.94,0.504 -0.14,0.576 0.14,0.915 0.72,0.936 -0.2,0.532 -0.69,0.53 -1.06,0.852 -0.58,0.504 -0.2,1.465 -1.1,2.028 0.32,-0.699 0.1,-0.963 -0.65,-0.792 0.29,0.776 -0.2,1.466 -0.21,2.232 -0.1,-1.453 -1.53,0.07 -2.3,0.07 -0.16,0.181 -0.73,2.691 -1.51,1.928 -0.69,-0.671 -1.15,-1.02 -1.28,0.238 -0.15,1.383 -0.8,1.709 -2.18,1.506 0.83,0.319 1.86,0.299 2.09,1.368 -0.93,-1.134 -0.86,0.632 -1.52,-0.07 -0.29,0.879 0.23,2 -0.93,2.352 -0.76,0.23 -2.07,0.524 -2.81,0.1 1.08,1.145 -3.09,1.725 -2.16,-0.07 -0.63,0.703 -1.45,0.408 -2.16,0.07 0.14,0.614 1.79,1.431 1.35,2.18 -0.27,0.459 -0.88,0.07 -1.15,-0.112 -0.83,-0.567 -1.6,-0.478 -1.5,-1.492 -0.45,0.613 -2.1,1.616 -2.66,1.225 1.27,0.444 0.44,1.417 -0.32,1.206 -0.9,-0.247 -0.87,-1.328 -0.26,-1.854 -0.85,0 -1.62,0.442 -2.08,1.152 0.96,0.175 -0.1,1.161 1,1.439 -0.21,0.191 -0.45,0.335 -0.72,0.433 -0.46,-1.546 -4.01,-1.408 -4.82,-0.144 -0.1,-2.108 -2.74,-2.657 -2.45,-4.896 -0.29,1.435 -0.25,0.578 -0.86,0.07 0.48,-0.806 1.3,-0.942 2.16,-0.792 -1.11,-0.776 -2.05,0.79 -3.17,0.288 1.6,0.643 -0.1,1.884 -1.15,1.512 0.4,0.162 1.91,0.723 1.99,1.209 -0.16,0.127 -0.34,0.132 -0.55,0.01 0.9,0.596 3.06,3.477 2.16,4.752 -0.96,1.352 -2.99,-2.558 -3.46,-3.096 -0.1,1.289 1.49,2.443 2.09,3.456 -0.53,0.124 -0.93,0.536 -1.01,1.08 -0.53,-0.263 -0.93,-0.754 -0.93,-1.368 -1.31,0.601 0,2.088 -0.8,2.952 -0.99,-1.274 -1.71,-0.249 -2.37,0.659 -0.45,0.614 -2.03,-0.696 -1.15,-1.523 -0.62,0.242 -1.01,-0.06 -0.94,-0.72 -0.12,0.836 0.49,1.699 0.23,2.535 -0.33,1.053 -3.06,-0.858 -3.62,-1.023 1.3,1.643 -0.42,0.888 -1.36,0.937 1.63,0.642 -0.74,3.095 -1.8,1.584 -0.17,0.543 -0.53,1.08 -1.08,1.296 0.54,-1.099 -0.8,-0.431 -1.54,-0.258 -0.91,0.215 -2.2,0.511 -2.78,1.338 0.16,-0.412 0.38,-0.796 0.64,-1.152 -0.6,0.419 -1.07,1.143 -0.64,1.872 -1.56,0.47 -1.01,-0.642 -1.95,-1.368 -0.37,0.821 0.74,1.358 0,2.098 -0.51,0.521 -1.63,1.054 -1.17,2 0.26,0.541 1.03,0.569 1.52,0.739 0.69,0.236 0.48,1.775 -0.1,0.132 0.11,1.264 1.87,1.922 1.77,3.179 -0.15,2.118 -3.03,1.08 -4.22,1.646 0.1,-0.728 -0.78,-1.891 0.51,-1.224 -0.26,-1.223 -2.46,-0.976 -1.59,-2.664 -1.01,0.135 -0.38,-1.312 -1.22,-1.403 -0.54,-0.06 -0.69,-2.074 -0.34,-2.446 0.71,-0.733 -0.17,-1.243 0.8,-1.835 1.5,-0.91 -0.61,-1.433 -1.18,-1.947 0.13,0.259 0.25,0.523 0.36,0.792 -1.11,0.239 -1.67,-1.411 -2.16,-2.088 -0.35,0.597 -0.1,1.159 0.5,1.439 -0.42,0.47 -1.83,1.701 -2.37,0.72 -0.88,2.021 -1.07,-1.031 -1.52,-1.368 -0.52,-0.396 -2.39,0.438 -1.29,-1.079 -0.26,-0.09 -0.52,-0.164 -0.79,-0.217 -0.1,0.526 0.1,1.007 0.36,1.44 -0.88,-0.133 -1.29,-1.798 -2.16,-1.584 0.4,-0.506 0.22,-0.998 -0.36,-1.224 -0.23,0.514 -0.45,1.241 -0.58,0.216 -0.19,1.061 1.43,1.72 0.83,2.802 -0.29,0.52 -1.28,-0.689 -1.69,-0.642 0.28,0.621 0,1.202 -0.58,1.512 0,-0.646 -1.68,-0.958 -2.53,-1.21 -1.82,-0.541 -2.79,1.266 -3.16,-0.158 -0.24,0.145 -0.48,0.289 -0.72,0.433 -0.69,-1.049 -1.7,-0.904 -2.51,-1.562 -0.39,-0.327 -0.19,-0.556 -0.42,-0.951 -0.23,-0.383 -1.48,-1.122 -2.47,-0.656 -0.61,-1.915 -1.66,-3.36 -1.65,-5.327 1.71,0.602 0.93,-3.704 -1.66,-2.522 -1.04,0.476 -1.3,-0.286 -2.1,-0.682 -0.96,-0.479 -1.38,0.419 -2.61,-0.09 -2.14,-0.894 -2.99,-1.84 -4.22,-3.541 -0.52,1.212 -1.98,1.35 -2.9,2.115 -0.59,0.489 0.51,1.469 -0.23,2.215 -0.61,0.615 -4.36,2.439 -3.99,0.421 -1.3,0.05 -1.62,3.093 -2.08,2.801 -0.66,-0.416 -1.2,-1.08 -1.73,-1.64 -1.14,-1.191 -1.06,0.1 -1.45,1 -1.39,-1.609 -1.58,-1.957 -2.67,0.06 -1,1.853 -2.42,-0.119 -3.37,-0.912 -2.08,-1.721 -2.38,0.745 -3.2,2.123 -0.51,0.851 -1.11,-0.08 -1.67,-0.06 -0.38,0.01 -0.84,0.07 -1.21,0.183 -0.49,0.147 -0.37,-0.665 -0.8,-0.665 -1.88,0 -0.97,3.637 -0.5,4.332 0.53,0.788 1.2,1.542 1.49,2.466 0.2,0.292 0.39,0.594 0.55,0.907 0.1,0.526 -0.37,0.984 -0.36,1.512 0,0.559 1.19,1.735 0.65,2.231 -0.71,0.671 -1.54,-0.849 -2.43,-0.58 -1.36,0.412 -1.52,0.51 -2.07,-0.894 -0.48,-1.208 -1.23,-2.381 -1.33,-3.71 -1.21,0.905 -3.31,3.439 -4.91,2.403 -0.77,-0.495 -0.94,0.651 -1.59,0.517 -0.65,-0.139 -0.86,-1.588 -0.56,-2.056 -2.51,-0.03 -0.66,-2.502 -2,-3.164 -1.47,-0.726 -3.27,-0.632 -4.81,-0.416 -1.98,0.279 -0.41,-2.579 -0.29,-3.276 0.19,-1.027 -1,-3.95 0.91,-3.873 -0.51,-1.516 -1.48,-1.656 -2.95,-1.656 -1.93,0 -1.76,-1.575 -2.56,-2.81 -0.1,-0.113 -0.75,-0.859 -0.62,-1.048 0.68,-0.969 -0.69,-1.633 -1.1,-2.352 -0.69,-1.208 1.05,-1.728 0.75,-2.933 -1.74,1.29 -3.91,-0.35 -5.73,0.67 -0.42,0.235 -2.88,2.182 -3.3,1.844 -0.88,-0.692 0,-1.415 0.33,-2.125 0.28,-0.704 -0.2,-1.825 -0.59,-2.406 -0.59,-0.902 -0.95,-0.782 -1.18,-2.076 -0.17,-0.962 0.24,-1.66 1.26,-1.739 -0.77,-1.271 -0.1,-2.268 -0.14,-3.6 1.68,1.526 1.8,-2.423 1.95,-2.952 2.47,0.178 0.69,-0.879 2.3,-2.088 0.25,-0.19 1.14,0.313 1.2,-0.125 0.11,-0.877 -0.99,-1.52 -1.27,-2.251 1.48,0.577 0.72,-2.089 0.72,-2.819 0,-1.588 -0.37,-3.434 -0.91,-4.924 -0.42,-1.186 -0.43,-2.501 -1.1,-3.565 -0.52,-0.827 -1.15,-1.735 -2.46,-2.372 0.29,0.575 0,1.025 -0.57,1.225 -0.52,-1.038 -1.49,-2.083 -1.82,-3.177 -0.3,-0.966 -0.26,-1.795 -1.07,-2.517 -1.32,-1.195 -3.38,-1.667 -4.53,-2.947 -0.1,0.766 -0.54,2.147 -0.61,2.636 0,0.223 -0.31,0.378 -0.39,0.527 -0.22,0.176 0.1,-0.285 -0.74,-1.069 -0.87,-0.853 -1.34,0.08 -2.21,-0.316 -0.79,-0.36 -1.77,-1.067 -2.67,-1.058 -0.84,0 -1.16,1.08 -2.06,0.722 -0.64,-0.256 -0.11,-1.178 0.1,-1.534 0.31,-0.561 0.92,-1.14 1.08,-1.757 0.25,-0.991 -1.57,-1.444 -1.2,-2.688 -0.64,0.183 -1.32,1.063 -2.04,0.896 -1.63,-0.372 0.18,-1.874 0.74,-2.119 -0.65,-0.59 -1.53,-1.384 -2.25,-1.898 -0.71,-0.51 -2.81,1.07 -3.4,1.479 -0.6,0.421 -0.3,1.354 -0.88,1.747 -0.51,0.352 -1.45,-0.1 -1.9,-0.285 -0.17,-0.07 -2.31,-1.381 -1.43,-0.324 -0.66,-0.386 -1.68,-1.178 -2.38,-1.368 -0.82,-0.219 -1.45,0.463 -2.24,0.932 -1.15,0.674 -1.76,1.938 -2.6,2.913 -1.06,1.237 -2.09,1.208 -3.58,1.468 -1.64,0.287 -1,1.398 -1.72,2.413 -0.66,0.932 -2.27,1.351 -2.56,2.457 -0.37,1.444 -0.39,2.501 -2.34,2.571 -1.26,0.04 -2.18,0.82 -3.41,0.655 -0.46,-0.06 -1.21,0.111 -1.5,-0.05 -0.28,-0.162 -0.1,-0.66 -0.12,-1.158 0,-0.887 -2.28,-1.396 -3.05,-1.38 -1.19,0.02 -0.81,1.43 -2.54,0.269 -2.12,-0.07 -3.28,-0.105 -4.01,-0.472 -1.13,-0.568 0,-1.42 -1.15,-1.757 -1.43,-0.428 -2.65,-0.204 -3.92,0.64 -1.33,0.887 -2.13,2.97 -2.82,4.399 -0.52,1.086 -1.85,2.129 -1.94,3.32 -2.72,-2.093 -0.72,-3.726 -1.26,-5.265 -0.84,-2.444 -3.52,-0.559 -5.39,-0.432 0,0.265 0.1,0.529 0.14,0.792 -1.62,-0.471 -3.92,0.134 -5.64,0.1 -1.56,-0.03 -2.55,-0.629 -3.99,-1.358 -0.51,-0.254 -1.36,-0.798 -1.96,-0.538 -0.54,0.231 -0.19,1.092 -0.76,1.196 -0.87,0.158 -2.58,-1.083 -2.63,-1.99 -0.2,0.17 -0.25,3.128 -0.98,1.9 -0.75,-1.25 -2.36,-1.987 -2.84,-3.412 -0.25,1.163 -4.16,0.677 -4.44,-0.35 -0.15,-0.549 0.41,-1.516 0,-1.97 -0.46,-0.47 -1.84,0.586 -2.64,0.109 -1.26,-0.759 -4.11,-1.713 -4.61,-3.198 -0.62,-1.828 -2.5,-3.829 -4.43,-1.906 -0.69,0.693 -2.92,-2.281 -3.28,-2.709 -0.98,-1.178 -2.93,-1.425 -4.39,-2.314 -2.27,-1.385 -4.3,-2.924 -6.26,-4.674 -0.74,-0.669 -1.77,-0.57 -2.67,-0.859 -0.96,-0.312 -0.97,0.918 -2.02,0.519 0.4,2.62 -1.08,2.951 -2.6,1.276 -1.37,-1.499 -3.09,-2.199 -4.99,-2.717 -0.4,-0.11 -1.34,-0.228 -1.63,-0.574 -0.44,-0.535 0.38,-1.397 -0.58,-1.777 -0.72,-0.288 -1.08,-0.372 -1.71,-0.95 -1.08,-0.991 -1.79,-0.278 -2.94,-0.618 -1.74,-0.512 -2.45,-2.387 -3.61,-3.53 -1.17,-1.154 -2.44,2.119 -3.18,-0.185 -0.26,-0.811 0.1,-1.633 -0.43,-2.391 -0.49,-0.767 -0.68,-1.395 -0.83,-2.28 -0.16,-0.952 -1.11,-1.532 -1.77,-2.119 -0.97,-0.868 -0.75,-2.201 -1.57,-3.143 1.96,-1.462 2.34,-0.396 3.47,0.955 0.56,0.666 1.4,0.783 1.85,0.04 0.56,-0.933 1.52,-0.859 2.12,-1.67 0.73,-1 -0.26,-1.977 -0.84,-2.669 -0.47,-0.55 -0.23,-2.059 -0.8,-2.231 -2.35,-0.708 -2.2,-0.544 -3.87,-2.239 -1.89,-1.912 -2.12,-5.35 -2.05,-5.82 0,-0.235 2.53,-0.973 0.42,-1.652 -1.83,-0.587 -3.25,-2.005 -4.97,-3.04 -2.36,-1.428 -1.61,-4.729 -5.53,-7.026 -2.32,0.102 -9.32,-0.379 -9.46,-3.731 -0.69,0.177 -1.68,1.287 -2.42,0.624 -0.57,-0.515 -2.1,-1.422 -2.41,-2.09 -0.27,-0.613 -0.2,-1.835 -0.39,-2.548 -0.26,-0.982 -0.74,-1.771 -1.49,-2.466 -1.05,-0.978 -2.85,-0.431 -3.5,-1.433 -0.71,-1.084 -3.01,-2.396 -3.9,-0.799 -0.72,-1.738 -2.72,-0.458 -3.4,-1.724 -0.9,-1.672 2.24,-0.966 2.69,-1.048 1.88,-0.339 1.14,-2.083 0.1,-2.739 -0.9,-0.557 -0.48,-0.849 -0.51,-1.724 0,-0.391 -0.68,-1.565 -0.86,-1.984 -0.26,-0.592 -0.98,-0.656 -1.21,-1.316 -0.28,-0.774 0,-1.605 -0.18,-2.395 -0.3,-1.457 -2.74,-1.856 -3.94,-2.119 -1.6,-0.351 -2.73,1.78 -3.94,0.249 -0.4,-0.495 -2.06,-2.758 -0.45,-2.768 -0.52,-0.724 -1.21,-1.279 -1.84,-1.901 -0.61,-0.612 -0.36,-1.685 -0.62,-2.426" />
      <path
         id="path2726"
         d="m 2164.14,358.11 c 0.13,-0.588 -0.19,-0.789 -0.73,-0.647 0.22,0.233 0.47,0.448 0.73,0.647" />
      <path
         id="path2730"
         d="m 2172.92,359.046 c -0.18,-0.227 -0.42,-0.322 -0.72,-0.288 0.24,0.1 0.48,0.192 0.72,0.288" />
      <path
         id="path2740"
         d="m 2187.75,423.486 c 1.39,0.618 4.44,4.068 6.05,2.377 -0.97,-0.805 -4.8,-3.609 -6.05,-2.377" />
      <path
         id="path2744"
         d="m 2196.9,455.454 c 0,0.12 0.1,0.239 0.14,0.359 1.25,-0.352 0.13,-1.909 -0.14,-0.359" />
      <path
         id="path2748"
         d="m 2198.77,438.966 c 0.78,-0.106 1.53,0.388 2.3,0 -0.48,-0.78 -1.96,-1.481 -2.74,-0.72 0.14,0.241 0.29,0.48 0.44,0.72" />
      <path
         id="path2750"
         d="m 2198.55,436.374 c 0.24,0.353 0.58,0.496 1.01,0.432 -0.1,-0.651 -0.49,-0.832 -1.01,-0.432" />
      <path
         id="path2752"
         d="m 2200.42,441.702 c 0.14,-0.581 -0.11,-0.653 -0.72,-0.217 0.24,0.07 0.48,0.145 0.72,0.217" />
      <path
         id="path2734"
         d="m 2177.24,493.542 c 0.19,0.168 0.38,0.336 0.58,0.504 0.95,-1.009 -0.52,-1.44 -0.58,-0.504" />
      <path
         id="path2742"
         d="m 2191.57,478.062 c 0.72,1.313 0.97,-0.508 0.79,-1.08 -0.28,0.02 -0.54,0.1 -0.79,0.217 0.26,0.216 0.52,0.432 0.79,0.647 -0.27,0.07 -0.53,0.143 -0.79,0.216" />
      <path
         id="path2766"
         d="m 2187.03,472.95 c 0.48,0.256 0.99,0.472 1.51,0.647 -0.64,0.348 -1.24,-0.07 -1.51,-0.647" />
      <path
         id="path2736"
         d="m 2181.63,486.27 c -0.21,0.59 0,0.948 0.65,0.864 0.12,-0.492 -0.1,-0.934 -0.65,-0.864" />
      <path
         id="path2712"
         d="m 2128.06,517.157 c 0.8,-0.16 1.61,-0.493 2.16,0.36 0.53,-1.499 -1.69,-1.511 -2.16,-0.36" />
      <path
         id="path2714"
         d="m 2130.01,515.142 c -0.59,0.354 -0.47,0.594 0.36,0.721 -0.12,-0.241 -0.24,-0.481 -0.36,-0.721" />
      <path
         id="path2716"
         d="m 2139.15,512.046 c 0.39,-0.188 0.6,-0.5 0.65,-0.937 -0.6,0.09 -0.6,0.435 -0.65,0.937" />
      <path
         id="path2718"
         d="m 2145.13,510.75 c -0.43,0.138 -0.7,0.426 -0.8,0.864 0.58,0.03 0.88,-0.282 0.8,-0.864" />
      <path
         id="path2720"
         d="m 2146.42,511.902 c 0.1,-0.561 -0.1,-1.065 -0.43,-1.512 0.1,0.527 0.2,1.031 0.43,1.512" />
      <path
         id="path2722"
         d="m 2149.23,500.382 c 0.1,0.232 1.15,1.647 1.59,1.224 -0.42,-0.521 -0.86,-1.144 -1.59,-1.224" />
      <path
         id="path2724"
         d="m 2150.31,501.822 c 0.1,0.436 0.1,0.593 0.58,0.721 -0.2,-0.241 -0.39,-0.481 -0.58,-0.721" />
    </g>
    <g
       id="hk">
      <title
         id="title2485">Hong Kong</title>
      <g
         id="hk-"
         class="landxx coastxx cn hk">
        <path
           id="path2764"
           class="landxx cn hk"
           d="m 2154.34,503.838 c 0.75,-0.259 1.47,-0.625 2.09,0.144 -0.23,0.215 -0.47,0.406 -0.72,0.576 0.3,-0.263 0.86,-0.448 1.22,-0.17 1.12,0.867 -1.25,0.08 -0.28,1.395 -0.85,-0.179 -4.02,-0.834 -2.31,-1.945" />
        <path
           id="path2762"
           d="m 2153.33,506.502 c 0,-0.753 0.9,-0.923 1.37,-1.224 0.1,0.788 -0.68,1.256 -1.37,1.224" />
        <path
           id="path2760"
           d="m 2155.78,505.782 c 0,0.375 0.19,0.615 0.58,0.72 -0.1,-0.326 -0.29,-0.566 -0.58,-0.72" />
      </g>
      <circle
         id="hk_"
         class="subxx cn hk"
         r="4"
         cy="505.86801"
         cx="2156.8701" />
    </g>
    <g
       id="mo">
      <title
         id="title2493">Macao</title>
      <path
         id="mo-"
         class="landxx cn mo"
         d="m 2151.1,506.502 c 0.13,-0.08 0.24,0.421 0.15,-0.145 0.12,0.278 0.14,0.566 0.1,0.864 -0.1,-0.239 -0.15,-0.479 -0.22,-0.719" />
      <circle
         id="mo_"
         class="subxx cn mo"
         r="4"
         cy="508.46201"
         cx="2148.72" />
    </g>
  </g>
  <g
     id="nl"
     transform="translate(0.86658945,-187.21678)">
    <title
       id="title2543">Netherlands</title>
    <g
       id="bq">
      <title
         id="title2554">Bonaire, Sint Eustatius and Saba</title>
      <path
         id="bq-"
         class="landxx coastxx nl bq"
         d="m 782.74,594.56 c -0.163,-0.412 0.08,-1.47 -0.445,-1.681 -0.443,-0.179 -0.638,-0.129 -0.485,-0.768 0.937,0.708 2.108,1.24 0.93,2.449" />
      <circle
         id="bq_"
         class="subxx nl bq"
         r="4"
         cy="596.42651"
         cx="784.92828" />
    </g>
  </g>
  <!--
/*
 * Small countries and territories with an optional circle around them
 *
 */
-->
  <g
     id="ki">
    <title
       id="title2817">Kiribati</title>
    <g
       id="ki-"
       class="landxx coastxx ki">
      <path
         id="path4790"
         d="m 98.9553,683.838 c 0.144,-0.05 0.288,-0.1 0.432,-0.145 -0.548,-0.608 -1.13,-2.463 -2.088,-2.52 0.364,0.886 0.538,1.59 -0.576,1.368 0.608,0.668 1.578,0.697 2.232,1.297" />
      <path
         id="path4788"
         d="m 2630.31,681.384 c 0.23,-0.648 0.17,-1.237 -0.72,-0.5 0.24,0.167 0.48,0.334 0.72,0.5" />
    </g>
    <circle
       id="ki_"
       class="circlexx ki"
       r="6"
       cy="682.23401"
       cx="2627.54" />
  </g>
  <g
     id="pm"
     transform="translate(0.86658945,-211.21678)">
    <title
       id="title2931">Saint Pierre and Miquelon</title>
    <path
       id="pm-"
       class="landxx coastxx pm"
       d="m 928.616,292.302 c -0.185,0.775 -0.644,1.447 -0.8,2.232 -0.06,-0.777 0.205,-1.528 0.15,-2.305 0.216,0.03 0.433,0.05 0.65,0.07" />
    <circle
       id="pm_"
       class="circlexx pm"
       r="6"
       cy="293.302"
       cx="926.52399" />
  </g>
  <g
     id="bm"
     transform="translate(0.86658945,-211.21678)">
    <title
       id="title3003">Bermuda</title>
    <path
       id="bm-"
       class="landxx coastxx bm"
       d="m 832.056,419.454 c 0.25,-0.174 0.517,-0.318 0.8,-0.433 -0.267,0.145 -0.534,0.289 -0.8,0.433" />
    <circle
       id="bm_"
       class="circlexx bm"
       r="6"
       cy="417.56601"
       cx="831.67401" />
  </g>
  <!--
/*
 * Territories without ISO 3166-1 codes are listed above inside their respective host countries' groupings:
 *
 * xa, xo, xj, xk, xs, xq, xn, xz, xv, xp, xd, xl, xc
 */
-->
  <text
     xml:space="preserve"
     style="font-size:40px;line-height:1.25;font-family:'DejaVu Sans';-inkscape-font-specification:'DejaVu Sans'"
     x="132.70422"
     y="102.19849"
     id="text3399"><tspan
       sodipodi:role="line"
       id="tspan3397"
       x="132.70422"
       y="102.19849"
       style="font-style:normal;font-variant:normal;font-weight:normal;font-stretch:normal;font-family:'Nimbus Sans';-inkscape-font-specification:'Nimbus Sans'">China</tspan></text>
  <text
     xml:space="preserve"
     style="font-size:40px;line-height:1.25;font-family:'DejaVu Sans';-inkscape-font-specification:'DejaVu Sans'"
     x="393.63538"
     y="35.835968"
     id="text3399-7"><tspan
       sodipodi:role="line"
       id="tspan3397-5"
       x="393.63538"
       y="35.835968"
       style="font-style:normal;font-variant:normal;font-weight:normal;font-stretch:normal;font-family:'Nimbus Sans';-inkscape-font-specification:'Nimbus Sans'">Schnable Lab Alumni</tspan></text>
  <text
     xml:space="preserve"
     style="font-size:40px;line-height:1.25;font-family:'DejaVu Sans';-inkscape-font-specification:'DejaVu Sans'"
     x="577.74164"
     y="379.80475"
     id="text3399-2"><tspan
       sodipodi:role="line"
       id="tspan3397-0"
       x="577.74164"
       y="379.80475"
       style="font-style:normal;font-variant:normal;font-weight:normal;font-stretch:normal;font-family:'Nimbus Sans';-inkscape-font-specification:'Nimbus Sans'">Faculty Member</tspan></text>
  <text
     xml:space="preserve"
     style="font-size:40px;line-height:1.25;font-family:'DejaVu Sans';-inkscape-font-specification:'DejaVu Sans'"
     x="575.94324"
     y="419.28107"
     id="text3399-2-2"><tspan
       sodipodi:role="line"
       id="tspan3397-0-3"
       x="575.94324"
       y="419.28107"
       style="font-style:normal;font-variant:normal;font-weight:normal;font-stretch:normal;font-family:'Nimbus Sans';-inkscape-font-specification:'Nimbus Sans'">Industry Scientist</tspan></text>
  <text
     xml:space="preserve"
     style="font-size:40px;line-height:1.25;font-family:'DejaVu Sans';-inkscape-font-specification:'DejaVu Sans'"
     x="1036.101"
     y="104.63004"
     id="text3399-3"><tspan
       sodipodi:role="line"
       id="tspan3397-6"
       x="1036.101"
       y="104.63004"
       style="font-style:normal;font-variant:normal;font-weight:normal;font-stretch:normal;font-family:'Nimbus Sans';-inkscape-font-specification:'Nimbus Sans'">Poland</tspan></text>
  <text
     xml:space="preserve"
     style="font-size:40px;line-height:1.25;font-family:'DejaVu Sans';-inkscape-font-specification:'DejaVu Sans'"
     x="969.90277"
     y="250.94621"
     id="text3399-3-7"><tspan
       sodipodi:role="line"
       x="969.90277"
       y="250.94621"
       style="font-style:normal;font-variant:normal;font-weight:normal;font-stretch:normal;font-family:'Nimbus Sans';-inkscape-font-specification:'Nimbus Sans'"
       id="tspan3505">Türkiye</tspan></text>
  <text
     xml:space="preserve"
     style="font-size:40px;line-height:1.25;font-family:'DejaVu Sans';-inkscape-font-specification:'DejaVu Sans'"
     x="398.32123"
     y="305.27704"
     id="text3399-3-7-6"><tspan
       sodipodi:role="line"
       x="398.32123"
       y="305.27704"
       style="font-style:normal;font-variant:normal;font-weight:normal;font-stretch:normal;font-family:'Nimbus Sans';-inkscape-font-specification:'Nimbus Sans'"
       id="tspan3505-1">Colombia</tspan></text>
  <circle
     style="fill:#0000ff;stroke:none;stroke-width:0.671681;stroke-dasharray:1.34336, 2.68672"
     id="path3561"
     cx="770.37341"
     cy="187.5"
     r="7.5" />
  <circle
     style="fill:#0000ff;stroke:none;stroke-width:0.671681;stroke-dasharray:1.34336, 2.68672"
     id="path3561-3"
     cx="756.7561"
     cy="153.28239"
     r="7.5" />
  <circle
     style="fill:#0000ff;stroke:none;stroke-width:0.671681;stroke-dasharray:1.34336, 2.68672"
     id="path3561-3-3"
     cx="786.43103"
     cy="187.5"
     r="7.5" />
  <circle
     style="fill:#0000ff;stroke:none;stroke-width:0.671681;stroke-dasharray:1.34336, 2.68672"
     id="path3561-3-5"
     cx="726.7406"
     cy="173.18352"
     r="7.5" />
  <circle
     style="fill:#0000ff;stroke:none;stroke-width:0.671681;stroke-dasharray:1.34336, 2.68672"
     id="path3561-3-5-9"
     cx="559.63507"
     cy="405.64124"
     r="7.5" />
  <circle
     style="fill:#0000ff;stroke:none;stroke-width:0.671681;stroke-dasharray:1.34336, 2.68672"
     id="path3561-3-5-6"
     cx="949.84088"
     cy="146.49126"
     r="7.5" />
  <circle
     style="fill:#0000ff;stroke:none;stroke-width:0.671681;stroke-dasharray:1.34336, 2.68672"
     id="path3561-3-5-6-2"
     cx="854.46967"
     cy="213.24742"
     r="7.5" />
  <circle
     style="fill:#00ff00;stroke:none;stroke-width:0.671681;stroke-dasharray:1.34336, 2.68672"
     id="path3561-3-5-6-2-9"
     cx="803.70453"
     cy="304.90265"
     r="7.5" />
  <circle
     style="fill:#00ff00;stroke:none;stroke-width:0.671681;stroke-dasharray:1.34336, 2.68672"
     id="path3561-3-5-6-2-9-0"
     cx="709.28931"
     cy="172.83971"
     r="7.5" />
  <circle
     style="fill:#00ff00;stroke:none;stroke-width:0.671681;stroke-dasharray:1.34336, 2.68672"
     id="path3561-3-5-6-2-9-0-9"
     cx="725.33936"
     cy="131.55443"
     r="7.5" />
  <circle
     style="fill:#00ff00;stroke:none;stroke-width:0.671681;stroke-dasharray:1.34336, 2.68672"
     id="path3561-3-5-6-2-9-0-9-3"
     cx="728.06317"
     cy="93.774597"
     r="7.5" />
  <circle
     style="fill:#00ff00;stroke:none;stroke-width:0.671681;stroke-dasharray:1.34336, 2.68672"
     id="path3561-3-5-6-2-9-0-9-3-6"
     cx="492.7821"
     cy="234.83195"
     r="7.5" />
  <circle
     style="fill:#00ff00;stroke:none;stroke-width:0.671681;stroke-dasharray:1.34336, 2.68672"
     id="path3561-3-5-6-2-9-0-9-3-6-0"
     cx="231.11121"
     cy="266.80768"
     r="7.5" />
  <circle
     style="fill:#00ff00;stroke:none;stroke-width:0.671681;stroke-dasharray:1.34336, 2.68672"
     id="path3561-3-5-6-2-9-0-9-3-6-0-6"
     cx="252.31641"
     cy="241.36229"
     r="7.5" />
  <circle
     style="fill:#00ff00;stroke:none;stroke-width:0.671681;stroke-dasharray:1.34336, 2.68672"
     id="path3561-3-5-6-2-9-0-9-3-6-0-6-2"
     cx="315.24268"
     cy="189.1555"
     r="7.5" />
  <circle
     style="fill:#00ff00;stroke:none;stroke-width:0.671681;stroke-dasharray:1.34336, 2.68672"
     id="path3561-3-5-6-2-9-0-9-3-6-0-6-2-7"
     cx="563.02319"
     cy="368.34827"
     r="7.5" />
  <circle
     style="fill:#00ff00;stroke:none;stroke-width:0.671681;stroke-dasharray:1.34336, 2.68672"
     id="path3561-3-5-6-2-9-1"
     cx="1103.7251"
     cy="155.12932"
     r="7.5" />
  <circle
     style="fill:#00ff00;stroke:none;stroke-width:0.671681;stroke-dasharray:1.34336, 2.68672"
     id="path3561-3-5-6-2-9-1-2"
     cx="916.64996"
     cy="328.65546"
     r="7.5" />
  <circle
     style="fill:#00ff00;stroke:none;stroke-width:0.671681;stroke-dasharray:1.34336, 2.68672"
     id="path3561-3-5-6-2-9-1-2-7"
     cx="1027.6685"
     cy="332.83105"
     r="7.5" />
  <metadata
     id="metadata7004">
    <rdf:RDF>
      <cc:Work
         rdf:about="">
        <dc:title>World Map</dc:title>
      </cc:Work>
    </rdf:RDF>
  </metadata>
  <path
     id="co"
     class="landxx co"
     d="m 429.6387,391.6103 c -0.264,-0.07 -0.528,-0.144 -0.792,-0.216 0.281,-1.72 2.127,-2.263 3.528,-1.44 0.759,-1.468 -1.129,-2.852 -0.381,-4.349 0.958,-1.921 3.111,-1.823 4.917,-2.13 0.343,-0.06 0.223,-0.889 0.69,-0.608 0.343,0.206 1.122,0.387 1.127,-0.218 0.01,-1.207 1.589,-2.708 0.631,-3.494 1.717,-0.05 2.034,-2.256 2.54,-3.428 0.4,-0.926 1.181,-1.567 1.996,-2.116 -1.014,-0.828 0.189,-0.953 0.504,-1.8 -0.707,0.03 -1.61,0.611 -1.872,-0.432 0.554,-0.144 0.96,-0.551 0.936,-1.152 -0.545,-0.191 -1.651,1.267 -1.764,0.144 -0.118,-1.178 0.554,-1.412 1.476,-1.873 -1.447,0.01 -0.786,-1.912 -0.588,-2.704 0.387,-1.555 0.05,-3.639 -0.103,-5.223 -0.114,-1.199 -0.646,-2.343 -0.729,-3.538 -0.04,-0.654 2.047,-0.911 1.692,-2.438 -0.212,-0.914 -2.315,-3.013 -0.919,-3.542 1.255,-0.475 0.178,-3.138 -0.367,-3.746 -1.099,-1.227 -1.234,-3.062 -2.421,-4.096 -0.781,-0.68 0,-1.537 0.453,-2.159 0.548,-0.749 0.02,-1.726 0.677,-2.362 0.361,0.427 0.625,0.907 0.792,1.44 1.536,-1.075 3.721,-3.175 3.011,-5.261 -0.728,-2.137 -2.086,-2.59 -0.779,-4.604 0.743,0.961 1.551,2.273 2.192,3.341 0.661,1.102 2.284,1.438 0.832,2.779 1.95,2.238 0.993,-4.18 0.717,-4.867 -0.396,-0.99 4.167,-3.272 4.75,-4.072 0.733,-1.007 1.257,-2.697 2.482,-3.228 0.694,-0.3 2.338,-0.129 2.728,-0.908 0.555,-1.107 -0.52,-1.507 -0.294,-2.189 0.401,-1.213 0.568,-2.737 1.281,-3.815 -1.059,-0.108 -0.772,-0.459 -0.05,-0.827 0.657,-0.336 0.403,-1.24 0.385,-1.804 -0.04,-1.324 2.188,-1.695 2.188,-2.158 0,-0.693 2.716,-3.371 3.349,-3.354 1.254,0.03 2.313,1.145 3.563,1.159 -1.056,-0.14 -0.906,1.005 -1.872,1.008 0.734,2.721 2.34,-0.9 2.708,-1.881 0.917,-2.449 2,-2.273 4.578,-1.843 3.519,0.587 4.639,-1.701 7.414,-3.364 1.526,-0.915 5.965,-2.004 4.596,-4.647 0.583,-0.174 2.232,-0.7 1.296,0.504 1.08,-0.165 0.4,-1.238 1.584,-1.776 1.426,-0.647 2.679,-0.648 3.897,0.37 4.155,3.473 -4.79,4.88 -6.13,6.59 -0.716,0.913 -0.987,2.246 -1.835,3.039 -0.589,0.551 -1.547,0.445 -2.072,1.042 -0.989,1.124 -2.026,2.84 -2.662,4.188 -0.949,2.009 -0.989,4.071 -1.527,6.188 -0.53,2.079 -2.041,4.578 -3.423,6.208 1.147,0.03 2.033,-0.414 2.88,-1.152 0.183,0.488 0.255,0.993 0.216,1.513 2.18,-0.563 1.449,3.304 2.555,4.71 1.579,2.008 2.013,3.188 1.089,5.655 -0.464,1.24 -1.209,3.893 0.468,4.522 1.903,0.713 0.895,2.979 2.853,3.441 0.792,0.187 1.55,-0.317 2.324,-0.4 1.263,-0.136 2.414,0.711 3.682,0.595 1.129,-0.103 2.075,-0.905 3.227,-0.883 1.024,0.02 1.786,1.009 2.754,1.237 0.711,0.167 1.374,-0.43 2.023,0.139 0.854,0.748 1.432,2.116 2.062,3.043 0.584,0.86 1.12,1.733 1.646,2.627 0.68,1.154 0.961,0.831 1.988,1.128 1.495,0.433 2.87,-0.823 4.819,-0.04 0.596,0.239 1.909,-0.343 2.553,-0.357 1.411,-0.03 2.611,0.08 3.849,-0.671 1.402,-0.85 3.718,0.822 2.982,2.297 -0.421,0.843 -1.446,1.49 -1.63,2.433 -0.227,1.161 0.241,1.77 -0.862,2.521 -1.469,1 -0.887,5.025 -1.032,6.657 -0.173,1.939 0.63,4 0.994,6.048 0.274,1.542 3.23,3.579 2.751,5.152 -0.59,1.935 -4.237,2.69 -4.157,5.01 1.322,-0.993 4.552,2.641 4.97,3.744 -0.09,0.299 -0.07,0.601 -0.132,0.907 0.171,0.561 0.604,1.116 0.605,1.717 0,1.249 0.728,2.569 1.037,3.806 0.122,0.489 0.771,2.384 0.904,3.142 0.134,0.758 -0.271,0.268 -0.874,0.456 -1.006,0.313 -1.316,-0.164 -1.069,-0.754 0.406,-0.967 -0.172,-7.297 -2.692,-7.2 -0.985,0.04 -3.657,5.13 -4.407,2.322 -0.28,-1.045 -1.624,-1.521 -1.476,0 0.167,1.705 -2,1.081 -3.159,1.081 -1.738,0 -3.477,0 -5.215,0 -1.15,0 -2.392,-0.677 -3.523,-0.178 -1.69,0.744 -0.345,4.538 -0.518,5.938 1.369,-0.925 4.58,-0.123 5.196,1.388 0.228,0.559 0.357,2.441 -0.709,2.344 -0.659,-0.06 -1.058,-0.936 -1.768,-0.809 -1.567,0.28 -4.307,0.711 -4.422,2.54 -0.14,2.228 -0.336,5.346 1.588,6.803 0.971,0.735 2.104,1.37 2.054,2.76 -0.05,1.334 0.631,1.845 1.152,2.971 1.183,2.555 -0.349,6.05 -0.71,8.663 -0.868,6.291 -0.727,13.134 -2.67,19.207 -0.467,-1.157 -1.384,-1.994 -2.211,-2.911 -0.942,-1.044 -2.134,0 -3.224,-0.622 -1.011,-0.575 1.536,-4.832 1.888,-5.432 0.687,-1.168 2.747,-3.462 1.7,-4.583 -0.453,-0.484 -0.916,-1.76 -1.648,-1.503 -1.302,0.456 -2.783,-1.623 -3.11,-1.893 -1.25,-1.034 -2.307,0 -3.626,0.649 -1.258,0.614 -2.09,-1.04 -3.245,-1.233 -0.705,-0.119 -2.705,2.983 -5.05,2.273 -0.82,-0.249 -1.383,-0.242 -2.402,-0.11 -1.406,0.184 -2.148,0.04 -3.254,-0.82 -0.863,-0.671 0.04,-2.455 -0.266,-3.475 -0.423,-1.392 -2.629,-0.637 -2.876,-2.034 -0.176,-0.995 -0.672,-2.13 -1.072,-3.058 -0.42,-0.975 -1.687,-0.557 -2.288,-1.416 -0.651,-0.931 -1.069,-1.194 -1.94,-1.487 -1.108,-0.372 -1.759,-1.869 -1.843,-2.869 -0.159,-1.906 -3.647,-4.956 -5.422,-5.476 -0.342,-0.101 -0.7,-0.498 -1.003,-0.02 -0.328,0.521 -0.32,0.529 -1.019,0.211 -1.041,-0.474 -2.642,-1.035 -3.519,-1.721 -0.681,-0.533 -3.837,-4.515 -4.211,-1.68 -0.194,1.473 -5.748,-0.404 -6.901,-0.61 -1.87,-0.334 -0.494,-1.916 -1.872,-2.505 -1.209,-0.517 -0.674,-1.547 -2.231,-1.566 -1.224,-0.01 -3.643,-1.372 -4.548,-2.12 -1.523,-1.256 -2.758,-2.798 -3.93,-4.399"
     style="fill:#c0c0c0;fill-rule:evenodd;stroke:#ffffff;stroke-width:0.5">
    <title
       id="title8772">Colombia</title>
  </path>
  <circle
     style="fill:#0000ff;stroke:none;stroke-width:0.671681;stroke-dasharray:1.34336, 2.68672"
     id="path3561-8"
     cx="459.00769"
     cy="378.44336"
     r="7.5" />
</svg>
